<svg width="456" height="80" viewBox="0 0 456 80" fill="none" xmlns="http://www.w3.org/2000/svg">
<path d="M94.771 17.6921C136.943 20.2405 166.329 79.9976 166.329 79.9976H151.954C151.954 79.9976 126.154 26.4766 94.4647 17.7388C94.5636 17.7255 94.6673 17.7054 94.771 17.6921Z" fill="url(#paint0_linear_2154_1094)"/>
<path opacity="0.3" d="M94.7708 17.6921C94.6671 17.7054 94.5634 17.7255 94.4652 17.7381C94.6128 17.7784 94.7583 17.8272 94.9058 17.8696C135.875 22.2229 162.096 79.9976 162.096 79.9976H166.33C166.33 79.9976 136.942 20.2412 94.7708 17.6921Z" fill="url(#paint1_linear_2154_1094)"/>
<path d="M69.6944 8.57642C115.023 11.4978 146.61 79.9983 146.61 79.9983H130.233C130.233 79.9983 103.427 18.6458 69.3658 8.63001C69.4716 8.614 69.583 8.59103 69.6944 8.57642Z" fill="url(#paint2_linear_2154_1094)"/>
<path opacity="0.3" d="M69.6944 8.57642C69.583 8.59173 69.4716 8.61401 69.3658 8.62932C69.4334 8.64881 69.5002 8.67317 69.567 8.69336C114.127 12.8614 142.717 79.9976 142.717 79.9976H146.61C146.61 79.9976 115.023 11.4978 69.6944 8.57642Z" fill="url(#paint3_linear_2154_1094)"/>
<path d="M69.365 8.98702C48.3276 10.1432 35.5769 19.9063 27.8811 31.8558C27.1725 28.413 26.7591 25.2487 26.6324 22.3795C36.683 13.0716 50.404 6.99626 69.0364 8.93691C69.1457 8.95292 69.2633 8.97032 69.365 8.98702Z" fill="url(#paint4_linear_2154_1094)"/>
<path d="M17.8981 58.6143C15.7291 70.5888 16.3793 79.9976 16.3793 79.9976H0C0 79.9976 2.42164 58.766 13.4008 39.4584C14.3788 46.0829 16.0584 52.6824 17.8981 58.6143Z" fill="url(#paint5_linear_2154_1094)"/>
<path opacity="0.3" d="M13.1251 39.9559C2.38544 59.1292 0 79.9975 0 79.9975H2.98406C3.20681 76.5227 4.76531 57.8311 13.1251 39.9559Z" fill="url(#paint6_linear_2154_1094)"/>
<path d="M83.2719 18.5818C78.5971 19.367 74.4874 20.86 70.8672 22.8772C49.9565 34.5058 45.526 63.5683 44.5898 75.1286C42.6658 71.4666 39.5773 65.3147 36.5139 58.1083C42.3032 43.8471 52.3614 26.7418 68.6147 20.3115C72.7751 18.666 77.3483 17.7207 82.3524 17.6957C82.6642 17.9908 82.9677 18.2867 83.2719 18.5818Z" fill="url(#paint7_linear_2154_1094)"/>
<path opacity="0.3" d="M67.3423 21.5088C71.3788 19.5284 75.8768 18.2449 80.8677 17.8829C81.1997 18.1676 81.5234 18.4523 81.847 18.7377C80.9581 18.9549 80.0992 19.2048 79.2556 19.4721C80.5475 19.1185 81.8818 18.815 83.2719 18.5818C82.9684 18.2867 82.6642 17.9908 82.3524 17.6957C77.3483 17.7207 72.7744 18.666 68.6147 20.3115C52.3621 26.7418 42.3032 43.8471 36.5139 58.1083C37.0756 59.4294 37.6381 60.7143 38.1942 61.9561C43.0354 46.976 51.8449 29.1134 67.3423 21.5088Z" fill="url(#paint8_linear_2154_1094)"/>
<path d="M26.5469 2.84071C-0.615228 18.7863 28.8502 79.9996 28.8502 79.9996H44.3371C44.3371 79.9996 2.83242 6.69626 38.5925 0.540195C34.8866 -0.000653207 30.2298 0.678708 26.5469 2.84071Z" fill="url(#paint9_linear_2154_1094)"/>
<path opacity="0.3" d="M28.4354 5.89221C12.1758 22.1601 34.3966 69.0002 39.961 79.9996H44.3379C44.3379 79.9996 12.7585 24.2198 28.4354 5.89221Z" fill="url(#paint10_linear_2154_1094)"/>
<path d="M34.7329 1.58291C35.9092 1.14091 37.1844 0.782431 38.5926 0.540197C35.3294 0.0640839 31.3311 0.536714 27.9072 2.13142C30.2223 1.52235 32.6022 1.36296 34.7329 1.58291Z" fill="url(#paint11_linear_2154_1094)"/>
<path d="M123.279 79.9976H102.833C102.833 79.9976 91.1542 46.6397 70.8678 22.8765C70.1251 22.0071 69.3741 21.1468 68.6147 20.3108C59.982 10.8087 49.898 3.21455 38.5903 0.539539C38.717 0.522833 38.8269 0.488725 38.9446 0.47202C55.1046 -2.06795 69.8551 5.92367 82.3523 17.695C82.6649 17.9901 82.9684 18.2859 83.2726 18.581C107.735 42.2099 123.279 79.9976 123.279 79.9976Z" fill="url(#paint12_linear_2154_1094)"/>
<path opacity="0.3" d="M83.2719 18.5818C82.9684 18.2866 82.6642 17.9908 82.3524 17.6956C71.1122 7.10769 58.0483 -0.416857 43.7767 0.0237565C56.4794 0.451145 68.1281 7.71257 78.2316 17.6956C78.5295 17.9908 78.8191 18.2866 79.1087 18.5818C102.429 42.2099 117.246 79.9976 117.246 79.9976H123.279C123.279 79.9976 107.735 42.2099 83.2719 18.5818Z" fill="url(#paint13_linear_2154_1094)"/>
<path d="M178.249 27.9999C178.687 27.9999 179.152 28.0219 179.644 28.0658C180.164 28.1098 180.656 28.1757 181.121 28.2636C181.614 28.3295 182.051 28.4065 182.434 28.4944C182.844 28.5603 183.159 28.6372 183.378 28.7252V32.3845H183.009C183.009 31.3295 182.557 30.5054 181.655 29.912C180.752 29.2966 179.658 28.9889 178.372 28.9889C176.868 28.9889 175.65 29.3735 174.72 30.1427C173.79 30.89 173.325 31.7691 173.325 32.7801C173.325 33.1977 173.435 33.6922 173.654 34.2636C173.9 34.813 174.338 35.3295 174.967 35.813L183.05 41.813C183.87 42.4284 184.417 43.0878 184.691 43.791C184.964 44.4943 185.101 45.1757 185.101 45.835C185.101 47.6592 184.404 49.1427 183.009 50.2855C181.641 51.4284 179.781 51.9998 177.428 51.9998C176.772 51.9998 175.992 51.9449 175.09 51.835C174.214 51.7251 173.353 51.5383 172.505 51.2745C171.684 50.9888 171 50.6262 170.453 50.1866C170.371 49.835 170.33 49.3954 170.33 48.868C170.33 48.3405 170.385 47.791 170.494 47.2196C170.604 46.6262 170.754 46.0877 170.946 45.6042H171.315C171.178 46.7251 171.356 47.7031 171.848 48.5383C172.341 49.3734 173.052 50.0108 173.982 50.4504C174.939 50.868 176.02 51.0548 177.223 51.0108C178.728 50.9449 180.013 50.5273 181.08 49.7581C182.174 48.9669 182.721 47.9119 182.721 46.5932C182.721 45.9559 182.585 45.3844 182.311 44.879C182.038 44.3515 181.641 43.9009 181.121 43.5273L173.243 37.6592C172.423 37.0438 171.848 36.3735 171.52 35.6482C171.192 34.901 171.028 34.2087 171.028 33.5713C171.028 32.6482 171.301 31.7581 171.848 30.901C172.395 30.0438 173.202 29.3515 174.269 28.8241C175.363 28.2746 176.69 27.9999 178.249 27.9999ZM183.378 28.3295V29.0219H180.26V28.3295H183.378Z" fill="url(#paint14_linear_2154_1094)"/>
<path d="M198.609 32.2197V51.9999H195.983V32.2197H198.609ZM209.646 50.9779L209.564 51.9999H198.527V50.9779H209.646ZM207.718 41.6153V42.6043H198.527V41.6153H207.718ZM209.605 32.2197V33.2417H198.527V32.2197H209.605ZM211.944 47.2856L209.687 51.9999H203.451L204.846 50.9779C206.213 50.9779 207.308 50.8241 208.128 50.5164C208.976 50.1867 209.66 49.7472 210.18 49.1977C210.699 48.6263 211.151 47.9889 211.534 47.2856H211.944ZM207.718 42.5384V44.4175H207.266V43.9889C207.266 43.6153 207.13 43.2966 206.856 43.0329C206.583 42.7472 206.159 42.6043 205.584 42.6043V42.5384H207.718ZM207.718 39.8021V41.6812H205.584V41.6153C206.159 41.6153 206.583 41.4834 206.856 41.2197C207.13 40.934 207.266 40.6043 207.266 40.2307V39.8021H207.718ZM209.605 33.1428V35.4175H209.154V34.923C209.154 34.4615 208.962 34.0659 208.579 33.7362C208.224 33.4065 207.731 33.2417 207.102 33.2417V33.1428H209.605ZM209.605 31.6923V32.5494L204.928 32.2197C205.776 32.2197 206.678 32.1648 207.636 32.0549C208.593 31.923 209.25 31.8022 209.605 31.6923ZM196.065 49.89L196.599 51.9999H193.029V51.6702C193.029 51.6702 193.125 51.6702 193.316 51.6702C193.508 51.6702 193.603 51.6702 193.603 51.6702C194.287 51.6702 194.848 51.4944 195.286 51.1428C195.723 50.7911 195.956 50.3735 195.983 49.89H196.065ZM196.065 34.2967H195.983C195.956 33.7912 195.723 33.3736 195.286 33.0439C194.848 32.7142 194.287 32.5494 193.603 32.5494C193.603 32.5494 193.508 32.5494 193.316 32.5494C193.125 32.5494 193.029 32.5494 193.029 32.5494V32.2197H196.599L196.065 34.2967Z" fill="url(#paint15_linear_2154_1094)"/>
<path d="M225.452 32.2197V51.9999H222.826V32.2197H225.452ZM236.489 50.9779L236.407 51.9999H225.37V50.9779H236.489ZM234.561 41.6153V42.6043H225.37V41.6153H234.561ZM236.448 32.2197V33.2417H225.37V32.2197H236.448ZM238.787 47.2856L236.53 51.9999H230.294L231.689 50.9779C233.056 50.9779 234.151 50.8241 234.971 50.5164C235.819 50.1867 236.503 49.7472 237.023 49.1977C237.542 48.6263 237.994 47.9889 238.377 47.2856H238.787ZM234.561 42.5384V44.4175H234.109V43.9889C234.109 43.6153 233.973 43.2966 233.699 43.0329C233.426 42.7472 233.002 42.6043 232.427 42.6043V42.5384H234.561ZM234.561 39.8021V41.6812H232.427V41.6153C233.002 41.6153 233.426 41.4834 233.699 41.2197C233.973 40.934 234.109 40.6043 234.109 40.2307V39.8021H234.561ZM236.448 33.1428V35.4175H235.997V34.923C235.997 34.4615 235.805 34.0659 235.422 33.7362C235.067 33.4065 234.575 33.2417 233.945 33.2417V33.1428H236.448ZM236.448 31.6923V32.5494L231.771 32.2197C232.619 32.2197 233.521 32.1648 234.479 32.0549C235.436 31.923 236.093 31.8022 236.448 31.6923ZM222.908 49.89L223.442 51.9999H219.872V51.6702C219.872 51.6702 219.968 51.6702 220.159 51.6702C220.351 51.6702 220.446 51.6702 220.446 51.6702C221.13 51.6702 221.691 51.4944 222.129 51.1428C222.566 50.7911 222.799 50.3735 222.826 49.89H222.908ZM222.908 34.2967H222.826C222.799 33.7912 222.566 33.3736 222.129 33.0439C221.691 32.7142 221.13 32.5494 220.446 32.5494C220.446 32.5494 220.351 32.5494 220.159 32.5494C219.968 32.5494 219.872 32.5494 219.872 32.5494V32.2197H223.442L222.908 34.2967Z" fill="url(#paint16_linear_2154_1094)"/>
<path d="M260.419 32.2197C263.127 32.2197 265.466 32.6153 267.435 33.4065C269.405 34.1977 270.923 35.3406 271.99 36.8351C273.056 38.3076 273.59 40.0659 273.59 42.1098C273.59 44.1538 273.056 45.912 271.99 47.3845C270.923 48.857 269.405 49.9999 267.435 50.8131C265.466 51.6043 263.127 51.9999 260.419 51.9999H251.68L251.597 51.0109C253.512 51.0109 255.112 51.0109 256.398 51.0109C257.711 51.0109 258.709 51.0109 259.393 51.0109C260.077 51.0109 260.419 51.0109 260.419 51.0109C263.592 51.0109 266.081 50.2197 267.887 48.6373C269.719 47.0329 270.636 44.8571 270.636 42.1098C270.636 39.3626 269.719 37.1977 267.887 35.6153C266.081 34.0109 263.592 33.2087 260.419 33.2087C260.419 33.2087 260.063 33.2087 259.352 33.2087C258.641 33.2087 257.602 33.2087 256.234 33.2087C254.866 33.2087 253.184 33.2087 251.187 33.2087V32.2197H260.419ZM252.254 32.2197V51.9999H249.587V32.2197H252.254ZM249.669 49.857V51.9999H246.715V51.6702C246.715 51.6702 246.797 51.6702 246.961 51.6702C247.153 51.6702 247.248 51.6702 247.248 51.6702C247.905 51.6702 248.452 51.4944 248.889 51.1428C249.327 50.7691 249.56 50.3406 249.587 49.857H249.669ZM249.669 34.3626H249.587C249.56 33.8351 249.313 33.4065 248.848 33.0769C248.411 32.7252 247.864 32.5494 247.207 32.5494C247.207 32.5494 247.125 32.5494 246.961 32.5494C246.797 32.5494 246.715 32.5494 246.715 32.5494V32.2197H249.669V34.3626Z" fill="url(#paint17_linear_2154_1094)"/>
<path d="M293.261 28.4614H297.611C299.525 28.4614 301.139 28.6922 302.452 29.1537C303.792 29.6153 304.805 30.2636 305.488 31.0988C306.172 31.912 306.514 32.868 306.514 33.9669C306.514 34.89 306.295 35.7032 305.858 36.4065C305.42 37.0878 304.859 37.6482 304.175 38.0878C303.492 38.5054 302.767 38.8021 302.001 38.9779C303.451 39.1537 304.695 39.5383 305.735 40.1317C306.801 40.7251 307.608 41.4724 308.155 42.3735C308.73 43.2526 309.017 44.2416 309.017 45.3405C309.017 46.5713 308.648 47.6592 307.909 48.6042C307.171 49.5273 306.076 50.2526 304.627 50.7801C303.204 51.2855 301.481 51.5383 299.457 51.5383H294.903C294.903 51.5383 294.903 51.4394 294.903 51.2416C294.93 51.0438 294.944 50.846 294.944 50.6482C294.944 50.4504 294.944 50.3515 294.944 50.3515H299.293C300.715 50.3515 301.919 50.1537 302.903 49.7581C303.888 49.3405 304.64 48.7361 305.16 47.9449C305.68 47.1537 305.94 46.2086 305.94 45.1097C305.94 43.879 305.639 42.879 305.037 42.1097C304.463 41.3405 303.71 40.7581 302.78 40.3625C301.85 39.9669 300.838 39.7032 299.744 39.5713C298.677 39.4174 297.652 39.3405 296.667 39.3405V39.0438C297.296 39.0438 297.993 38.9889 298.759 38.879C299.525 38.7691 300.264 38.5493 300.975 38.2196C301.686 37.89 302.274 37.4065 302.739 36.7691C303.204 36.1098 303.437 35.2526 303.437 34.1977C303.437 33.2087 303.204 32.3625 302.739 31.6592C302.302 30.9559 301.632 30.4285 300.729 30.0768C299.854 29.7032 298.759 29.5164 297.446 29.5164H293.672C293.672 29.4944 293.631 29.4065 293.549 29.2526C293.494 29.0768 293.425 28.901 293.343 28.7252C293.289 28.5493 293.261 28.4614 293.261 28.4614ZM295.272 28.4614V51.5383H292.605V28.4614H295.272ZM292.728 49.1317V51.5383H289.445L289.487 51.2086C289.541 51.2086 289.623 51.2086 289.733 51.2086C289.869 51.2086 289.952 51.2086 289.979 51.2086C290.69 51.2086 291.306 51.0108 291.825 50.6152C292.345 50.1976 292.605 49.7031 292.605 49.1317H292.728ZM292.728 30.868H292.605C292.605 30.2966 292.345 29.8131 291.825 29.4175C291.306 28.9999 290.69 28.7911 289.979 28.7911C289.952 28.7911 289.869 28.7911 289.733 28.7911C289.623 28.7911 289.541 28.7911 289.487 28.7911L289.445 28.4614H292.728V30.868Z" fill="url(#paint18_linear_2154_1094)"/>
<path d="M321.951 31.7581H327.244C328.529 31.7581 329.678 31.8789 330.69 32.1207C331.73 32.3625 332.605 32.7141 333.316 33.1756C334.055 33.6372 334.615 34.1976 334.998 34.8569C335.381 35.5163 335.573 36.2635 335.573 37.0987C335.573 38.0218 335.299 38.8789 334.752 39.6701C334.205 40.4613 333.439 41.1097 332.454 41.6152C331.497 42.1207 330.403 42.4284 329.172 42.5382C329.637 42.6921 330.17 43.0328 330.772 43.5602C331.401 44.0877 331.935 44.6042 332.372 45.1097C332.372 45.1097 332.55 45.3075 332.906 45.7031C333.261 46.0767 333.713 46.5492 334.26 47.1207C334.834 47.6701 335.395 48.1976 335.942 48.7031C336.516 49.2086 337.036 49.6481 337.501 50.0217C337.993 50.3954 338.513 50.6921 339.06 50.9118C339.635 51.1097 340.291 51.2086 341.03 51.2086V51.5382H339.758C338.253 51.5382 337.009 51.3844 336.024 51.0767C335.067 50.769 334.287 50.3954 333.685 49.9558C333.084 49.4943 332.564 49.0547 332.126 48.6371C332.017 48.5272 331.757 48.2525 331.347 47.813C330.964 47.3514 330.54 46.8569 330.075 46.3294C329.61 45.802 329.186 45.3294 328.803 44.9119C328.42 44.4723 328.187 44.2086 328.105 44.1207C327.558 43.5492 326.929 43.0437 326.218 42.6042C325.507 42.1426 324.754 41.9119 323.961 41.9119V41.5822C323.961 41.5822 324.18 41.5932 324.618 41.6152C325.055 41.6152 325.616 41.6042 326.3 41.5822C327.066 41.5602 327.832 41.5163 328.598 41.4503C329.363 41.3624 330.075 41.1207 330.731 40.7251C331.415 40.3295 331.948 39.6701 332.331 38.747C332.441 38.5053 332.523 38.2196 332.577 37.8899C332.632 37.5602 332.646 37.2196 332.618 36.8679C332.591 36.2525 332.441 35.7031 332.167 35.2196C331.921 34.7361 331.552 34.3185 331.059 33.9668C330.594 33.6152 330.034 33.3405 329.377 33.1427C328.721 32.9449 327.982 32.835 327.161 32.813C325.876 32.769 324.754 32.7581 323.797 32.78C322.84 32.802 322.361 32.802 322.361 32.78C322.361 32.7581 322.32 32.6701 322.238 32.5163C322.183 32.3405 322.115 32.1756 322.033 32.0218C321.978 31.846 321.951 31.7581 321.951 31.7581ZM322.443 31.7581V51.5382H319.817V31.7581H322.443ZM319.94 49.4283L320.432 51.5382H316.945V51.2086C316.945 51.2086 317.041 51.2086 317.232 51.2086C317.424 51.2086 317.519 51.2086 317.519 51.2086C318.176 51.2086 318.723 51.0327 319.161 50.6811C319.598 50.3294 319.831 49.9119 319.858 49.4283H319.94ZM319.94 33.835H319.858C319.831 33.3295 319.598 32.9119 319.161 32.5822C318.723 32.2526 318.176 32.0877 317.519 32.0877C317.519 32.0877 317.424 32.0877 317.232 32.0877C317.041 32.0877 316.945 32.0877 316.945 32.0877V31.7581H320.432L319.94 33.835ZM322.32 49.4283H322.443C322.47 49.9119 322.703 50.3294 323.14 50.6811C323.578 51.0327 324.125 51.2086 324.782 51.2086C324.782 51.2086 324.864 51.2086 325.028 51.2086C325.219 51.2086 325.315 51.2086 325.315 51.2086L325.356 51.5382H321.828L322.32 49.4283Z" fill="url(#paint19_linear_2154_1094)"/>
<path d="M354.907 31.7581V51.5382H352.322V31.7581H354.907ZM352.445 49.4283V51.5382H348.958V51.2086C348.958 51.2086 349.053 51.2086 349.245 51.2086C349.436 51.2086 349.532 51.2086 349.532 51.2086C350.298 51.2086 350.941 51.0327 351.46 50.6811C352.008 50.3294 352.295 49.9119 352.322 49.4283H352.445ZM354.784 49.4283H354.907C354.934 49.9119 355.208 50.3294 355.728 50.6811C356.275 51.0327 356.931 51.2086 357.697 51.2086C357.697 51.2086 357.779 51.2086 357.943 51.2086C358.135 51.2086 358.23 51.2086 358.23 51.2086L358.271 51.5382H354.784V49.4283ZM354.784 33.8679V31.7581H358.271L358.23 32.0877C358.23 32.0877 358.135 32.0877 357.943 32.0877C357.779 32.0877 357.697 32.0877 357.697 32.0877C356.931 32.0877 356.275 32.2635 355.728 32.6152C355.208 32.9449 354.934 33.3624 354.907 33.8679H354.784ZM352.445 33.8679H352.322C352.295 33.3624 352.008 32.9449 351.46 32.6152C350.941 32.2635 350.298 32.0877 349.532 32.0877C349.505 32.0877 349.395 32.0877 349.204 32.0877C349.04 32.0877 348.958 32.0877 348.958 32.0877V31.7581H352.445V33.8679Z" fill="url(#paint20_linear_2154_1094)"/>
<path d="M379.904 31.7581C382.612 31.7581 384.95 32.1537 386.92 32.9449C388.889 33.7361 390.407 34.8789 391.474 36.3734C392.541 37.846 393.074 39.6042 393.074 41.6481C393.074 43.6921 392.541 45.4503 391.474 46.9229C390.407 48.3954 388.889 49.5382 386.92 50.3514C384.95 51.1426 382.612 51.5382 379.904 51.5382H371.164L371.082 50.5492C372.997 50.5492 374.597 50.5492 375.883 50.5492C377.196 50.5492 378.194 50.5492 378.878 50.5492C379.562 50.5492 379.904 50.5492 379.904 50.5492C383.077 50.5492 385.566 49.758 387.371 48.1756C389.204 46.5712 390.12 44.3954 390.12 41.6481C390.12 38.9009 389.204 36.7361 387.371 35.1537C385.566 33.5493 383.077 32.7471 379.904 32.7471C379.904 32.7471 379.548 32.7471 378.837 32.7471C378.126 32.7471 377.086 32.7471 375.719 32.7471C374.351 32.7471 372.669 32.7471 370.672 32.7471V31.7581H379.904ZM371.739 31.7581V51.5382H369.072V31.7581H371.739ZM369.154 49.3954V51.5382H366.199V51.2086C366.199 51.2086 366.282 51.2086 366.446 51.2086C366.637 51.2086 366.733 51.2086 366.733 51.2086C367.389 51.2086 367.936 51.0327 368.374 50.6811C368.812 50.3075 369.044 49.8789 369.072 49.3954H369.154ZM369.154 33.9009H369.072C369.044 33.3734 368.798 32.9449 368.333 32.6152C367.895 32.2635 367.348 32.0877 366.692 32.0877C366.692 32.0877 366.61 32.0877 366.446 32.0877C366.282 32.0877 366.199 32.0877 366.199 32.0877V31.7581H369.154V33.9009Z" fill="url(#paint21_linear_2154_1094)"/>
<path d="M414.46 30.8351C415.718 30.8351 416.895 30.912 417.989 31.0659C419.11 31.1977 420.163 31.4175 421.148 31.7252C422.16 32.0109 423.118 32.3845 424.02 32.8461L424.923 37.4944H424.554C424.171 36.1977 423.541 35.1318 422.666 34.2966C421.818 33.4614 420.71 32.8461 419.343 32.4505C417.975 32.0329 416.334 31.8241 414.419 31.8241C412.34 31.8241 410.508 32.2087 408.921 32.9779C407.362 33.7252 406.145 34.8021 405.269 36.2087C404.394 37.5933 403.956 39.2526 403.956 41.1867C403.956 43.0988 404.394 44.7581 405.269 46.1647C406.145 47.5713 407.376 48.6592 408.962 49.4284C410.549 50.1757 412.381 50.5493 414.46 50.5493C415.609 50.5493 416.703 50.4504 417.743 50.2526C418.782 50.0548 419.78 49.7471 420.738 49.3295C421.722 48.89 422.639 48.3405 423.487 47.6812L423.528 43.2966C423.555 42.879 423.391 42.5603 423.035 42.3405C422.707 42.1208 422.242 42.0109 421.64 42.0109H421.066V41.6812H428.575V42.0109H428C426.769 42.0109 426.154 42.4504 426.154 43.3296V47.2856C425.525 47.9229 424.663 48.5713 423.569 49.2306C422.475 49.89 421.162 50.4394 419.63 50.879C418.125 51.3185 416.402 51.5383 414.46 51.5383C411.752 51.5163 409.386 51.0878 407.362 50.2526C405.365 49.4174 403.806 48.2306 402.684 46.6922C401.563 45.1537 401.002 43.3186 401.002 41.1867C401.002 39.0329 401.563 37.1867 402.684 35.6483C403.806 34.1098 405.379 32.923 407.403 32.0878C409.427 31.2527 411.779 30.8351 414.46 30.8351Z" fill="url(#paint22_linear_2154_1094)"/>
<path d="M442.083 31.7581V51.5382H439.457V31.7581H442.083ZM453.12 50.5163L453.038 51.5382H442.001V50.5163H453.12ZM451.191 41.1536V42.1427H442.001V41.1536H451.191ZM453.079 31.7581V32.78H442.001V31.7581H453.079ZM455.417 46.824L453.161 51.5382H446.924L448.319 50.5163C449.687 50.5163 450.781 50.3624 451.602 50.0547C452.45 49.725 453.133 49.2855 453.653 48.736C454.173 48.1646 454.624 47.5273 455.007 46.824H455.417ZM451.191 42.0767V43.9558H450.74V43.5273C450.74 43.1536 450.603 42.835 450.33 42.5712C450.056 42.2855 449.632 42.1427 449.058 42.1427V42.0767H451.191ZM451.191 39.3405V41.2196H449.058V41.1536C449.632 41.1536 450.056 41.0218 450.33 40.758C450.603 40.4723 450.74 40.1427 450.74 39.769V39.3405H451.191ZM453.079 32.6811V34.9559H452.627V34.4614C452.627 33.9998 452.436 33.6042 452.053 33.2745C451.697 32.9449 451.205 32.78 450.576 32.78V32.6811H453.079ZM453.079 31.2306V32.0877L448.401 31.7581C449.249 31.7581 450.152 31.7031 451.109 31.5932C452.067 31.4614 452.723 31.3405 453.079 31.2306ZM439.539 49.4283L440.072 51.5382H436.502V51.2086C436.502 51.2086 436.598 51.2086 436.79 51.2086C436.981 51.2086 437.077 51.2086 437.077 51.2086C437.761 51.2086 438.321 51.0327 438.759 50.6811C439.197 50.3294 439.429 49.9119 439.457 49.4283H439.539ZM439.539 33.835H439.457C439.429 33.3295 439.197 32.9119 438.759 32.5822C438.321 32.2526 437.761 32.0877 437.077 32.0877C437.077 32.0877 436.981 32.0877 436.79 32.0877C436.598 32.0877 436.502 32.0877 436.502 32.0877V31.7581H440.072L439.539 33.835Z" fill="url(#paint23_linear_2154_1094)"/>
<defs>
<linearGradient id="paint0_linear_2154_1094" x1="156.241" y1="30.2072" x2="39.6502" y2="114.394" gradientUnits="userSpaceOnUse">
<stop stop-color="#8E54E9"/>
<stop offset="0.5936" stop-color="#6567E7"/>
<stop offset="1" stop-color="#4776E6"/>
</linearGradient>
<linearGradient id="paint1_linear_2154_1094" x1="156.241" y1="30.2071" x2="39.6499" y2="114.394" gradientUnits="userSpaceOnUse">
<stop stop-color="#8E54E9"/>
<stop offset="0.5936" stop-color="#6567E7"/>
<stop offset="1" stop-color="#4776E6"/>
</linearGradient>
<linearGradient id="paint2_linear_2154_1094" x1="71.0328" y1="-15.1491" x2="136.476" y2="88.0992" gradientUnits="userSpaceOnUse">
<stop stop-color="#CBFF48"/>
<stop offset="0.483" stop-color="#D7FF70"/>
<stop offset="1" stop-color="#EDFFC2"/>
</linearGradient>
<linearGradient id="paint3_linear_2154_1094" x1="71.0328" y1="-15.1491" x2="136.476" y2="88.0992" gradientUnits="userSpaceOnUse">
<stop stop-color="#EDC14C"/>
<stop offset="0.483" stop-color="#F3D585"/>
<stop offset="1" stop-color="#F9E9C0"/>
</linearGradient>
<linearGradient id="paint4_linear_2154_1094" x1="-15.7149" y1="71.1223" x2="68.8693" y2="-2.5016" gradientUnits="userSpaceOnUse">
<stop stop-color="#E2FF99"/>
<stop offset="0.483" stop-color="#DCFF85"/>
<stop offset="1" stop-color="#D7FF70"/>
</linearGradient>
<linearGradient id="paint5_linear_2154_1094" x1="-8.16528" y1="79.7958" x2="76.4189" y2="6.17198" gradientUnits="userSpaceOnUse">
<stop stop-color="#D1FF5C"/>
<stop offset="0.483" stop-color="#CBFF48"/>
<stop offset="1" stop-color="#C6FF34"/>
</linearGradient>
<linearGradient id="paint6_linear_2154_1094" x1="-10.9224" y1="76.4947" x2="72.4313" y2="3.94189" gradientUnits="userSpaceOnUse">
<stop stop-color="#E7AB0A"/>
<stop offset="0.483" stop-color="#479FE6"/>
<stop offset="1" stop-color="#47CFE6"/>
</linearGradient>
<linearGradient id="paint7_linear_2154_1094" x1="130.053" y1="-6.06052" x2="13.4623" y2="78.1267" gradientUnits="userSpaceOnUse">
<stop stop-color="#8E54E9"/>
<stop offset="0.5936" stop-color="#6567E7"/>
<stop offset="1" stop-color="#4776E6"/>
</linearGradient>
<linearGradient id="paint8_linear_2154_1094" x1="124.168" y1="-10.7064" x2="12.146" y2="70.1816" gradientUnits="userSpaceOnUse">
<stop stop-color="#8E54E9"/>
<stop offset="0.5936" stop-color="#6567E7"/>
<stop offset="1" stop-color="#4776E6"/>
</linearGradient>
<linearGradient id="paint9_linear_2154_1094" x1="14.7433" y1="58.1815" x2="106.237" y2="-16.6339" gradientUnits="userSpaceOnUse">
<stop stop-color="#8E54E9"/>
<stop offset="0.5936" stop-color="#6567E7"/>
<stop offset="1" stop-color="#4776E6"/>
</linearGradient>
<linearGradient id="paint10_linear_2154_1094" x1="21.8404" y1="54.8404" x2="81.932" y2="5.70294" gradientUnits="userSpaceOnUse">
<stop stop-color="#8E54E9"/>
<stop offset="0.5936" stop-color="#6567E7"/>
<stop offset="1" stop-color="#4776E6"/>
</linearGradient>
<linearGradient id="paint11_linear_2154_1094" x1="30.0178" y1="3.97907" x2="44.6953" y2="-8.02283" gradientUnits="userSpaceOnUse">
<stop stop-color="#8E54E9"/>
<stop offset="0.5936" stop-color="#6567E7"/>
<stop offset="1" stop-color="#4776E6"/>
</linearGradient>
<linearGradient id="paint12_linear_2154_1094" x1="119.762" y1="79.7235" x2="46.1384" y2="-5.09913" gradientUnits="userSpaceOnUse">
<stop stop-color="#8E54E9"/>
<stop offset="0.5936" stop-color="#6567E7"/>
<stop offset="1" stop-color="#4776E6"/>
</linearGradient>
<linearGradient id="paint13_linear_2154_1094" x1="122.759" y1="77.2088" x2="51.0537" y2="-5.40366" gradientUnits="userSpaceOnUse">
<stop stop-color="#8E54E9"/>
<stop offset="0.5936" stop-color="#6567E7"/>
<stop offset="1" stop-color="#4776E6"/>
</linearGradient>
<linearGradient id="paint14_linear_2154_1094" x1="170.33" y1="39.9998" x2="185.101" y2="39.9998" gradientUnits="userSpaceOnUse">
<stop stop-color="#C6FF34"/>
<stop offset="1" stop-color="#8B55E9"/>
</linearGradient>
<linearGradient id="paint15_linear_2154_1094" x1="193.029" y1="41.8461" x2="211.944" y2="41.8461" gradientUnits="userSpaceOnUse">
<stop stop-color="#C6FF34"/>
<stop offset="1" stop-color="#8B55E9"/>
</linearGradient>
<linearGradient id="paint16_linear_2154_1094" x1="219.872" y1="41.8461" x2="238.787" y2="41.8461" gradientUnits="userSpaceOnUse">
<stop stop-color="#C6FF34"/>
<stop offset="1" stop-color="#8B55E9"/>
</linearGradient>
<linearGradient id="paint17_linear_2154_1094" x1="246.715" y1="42.1098" x2="273.59" y2="42.1098" gradientUnits="userSpaceOnUse">
<stop stop-color="#C6FF34"/>
<stop offset="1" stop-color="#8B55E9"/>
</linearGradient>
<linearGradient id="paint18_linear_2154_1094" x1="289.445" y1="39.9999" x2="309.017" y2="39.9999" gradientUnits="userSpaceOnUse">
<stop stop-color="#C6FF34"/>
<stop offset="1" stop-color="#8B55E9"/>
</linearGradient>
<linearGradient id="paint19_linear_2154_1094" x1="316.945" y1="41.6481" x2="341.03" y2="41.6481" gradientUnits="userSpaceOnUse">
<stop stop-color="#C6FF34"/>
<stop offset="1" stop-color="#8B55E9"/>
</linearGradient>
<linearGradient id="paint20_linear_2154_1094" x1="348.958" y1="41.6481" x2="358.271" y2="41.6481" gradientUnits="userSpaceOnUse">
<stop stop-color="#C6FF34"/>
<stop offset="1" stop-color="#8B55E9"/>
</linearGradient>
<linearGradient id="paint21_linear_2154_1094" x1="366.199" y1="41.6481" x2="393.074" y2="41.6481" gradientUnits="userSpaceOnUse">
<stop stop-color="#C6FF34"/>
<stop offset="1" stop-color="#8B55E9"/>
</linearGradient>
<linearGradient id="paint22_linear_2154_1094" x1="401.002" y1="41.1867" x2="428.575" y2="41.1867" gradientUnits="userSpaceOnUse">
<stop stop-color="#C6FF34"/>
<stop offset="1" stop-color="#8B55E9"/>
</linearGradient>
<linearGradient id="paint23_linear_2154_1094" x1="436.502" y1="41.3844" x2="455.417" y2="41.3844" gradientUnits="userSpaceOnUse">
<stop stop-color="#C6FF34"/>
<stop offset="1" stop-color="#8B55E9"/>
</linearGradient>
</defs>
</svg>
