<svg width="120" height="118" viewBox="0 0 120 118" fill="none" xmlns="http://www.w3.org/2000/svg">
<g opacity="0.01">
<path d="M57.4032 117.981C53.5826 117.981 49.7626 116.989 46.3421 115.006C24.0695 102.09 9.22958 82.4586 3.42665 58.2335C-0.830904 40.46 1.36705 26.1696 1.63177 24.5985C2.86363 17.2874 7.68736 11.0845 14.4701 8.09025C15.569 7.60528 25.64 3.29052 40.7124 1.17513C60.7338 -1.63483 81.0131 0.617246 99.3582 7.68761C106.627 10.4888 111.878 16.9175 113.172 24.5989C113.436 26.1696 115.634 40.4597 111.377 58.2331C105.575 82.4582 90.7357 102.09 68.4646 115.005C65.0443 116.989 61.2236 117.981 57.4032 117.981ZM45.7072 45.0467C45.9499 46.4191 46.2617 47.8527 46.6602 49.3254C48.6372 56.633 52.2344 62.9856 57.4025 68.3216C62.5703 62.9855 66.1668 56.6332 68.1434 49.3259C68.5468 47.8353 68.8613 46.3856 69.1051 44.9982C60.1654 43.6048 52.0471 44.0689 45.7072 45.0467Z" fill="#00F813"/>
</g>
<g opacity="0.01">
<path d="M57.4029 117.48C53.6691 117.48 49.9358 116.511 46.5934 114.572C24.4424 101.727 9.68401 82.2052 3.91361 58.1167C-0.320629 40.4397 1.86285 26.2424 2.12578 24.6819C3.32944 17.5368 8.04375 11.475 14.6724 8.54866C15.7645 8.06661 25.7766 3.77745 40.7818 1.67134C60.7197 -1.12699 80.9122 1.11543 99.1778 8.15517C106.281 10.8928 111.413 17.1753 112.677 24.6821C112.94 26.2426 115.124 40.4395 110.89 58.1162C105.12 82.2048 90.3626 101.727 68.2131 114.572C64.8705 116.51 61.1364 117.48 57.4029 117.48ZM45.1272 44.631C45.3812 46.1576 45.7198 47.7648 46.1665 49.4209C48.2103 56.9978 51.9734 63.5602 57.4022 69.0392C62.8305 63.5602 66.5929 56.9983 68.6365 49.4212C69.0881 47.7473 69.4289 46.1246 69.6838 44.5832C60.2499 43.0445 51.6985 43.5744 45.1272 44.631Z" fill="#00F813"/>
</g>
<g opacity="0.01">
<path d="M57.4028 116.979C53.7561 116.979 50.1095 116.032 46.8447 114.139C24.8153 101.364 10.1384 81.9519 4.40091 57.9999C0.189557 40.4194 2.35863 26.3155 2.61976 24.7651C3.79565 17.7862 8.40024 11.8654 14.8747 9.00717C15.9604 8.52802 25.9131 4.26415 40.8513 2.16763C60.7048 -0.619381 80.8113 1.61327 98.9975 8.62271C105.936 11.2967 110.948 17.4331 112.183 24.7653C112.444 26.3155 114.613 40.4192 110.402 57.9997C104.665 81.9514 89.9896 101.364 67.9616 114.139C64.6967 116.032 61.0495 116.979 57.4028 116.979ZM44.5441 44.1618C44.8073 45.856 45.1725 47.6544 45.673 49.5154C47.7829 57.361 51.7115 64.1296 57.4021 69.7487C63.0916 64.1297 67.0206 57.3608 69.1301 49.5158C69.6315 47.651 69.9972 45.8479 70.2606 44.1507C60.2787 42.4283 51.302 43.0251 44.5441 44.1618Z" fill="#00F813"/>
</g>
<g opacity="0.01">
<path d="M57.4036 116.478C53.8436 116.478 50.284 115.553 47.0968 113.705C25.1889 101.001 10.5938 81.6983 4.88906 57.8834C0.700842 40.3992 2.85526 26.3885 3.11484 24.8483C4.2624 18.0355 8.75758 12.2557 15.0779 9.46561C16.157 8.98912 26.0507 4.75111 40.9218 2.66393C60.6904 -0.110842 80.7107 2.11161 98.8181 9.09037C105.591 11.7007 110.484 17.691 111.69 24.8486C111.949 26.3886 114.103 40.399 109.916 57.8829C104.211 81.6979 89.6174 101.001 67.711 113.705C64.5238 115.553 60.9635 116.478 57.4036 116.478ZM43.9768 43.7548C44.2453 45.5951 44.6319 47.5648 45.1802 49.6098C47.355 57.7216 51.4503 64.6949 57.4031 70.4508C63.3552 64.6951 67.4495 57.7219 69.6242 49.6101C70.1736 47.561 70.5607 45.5871 70.8292 43.7434C60.3534 41.8649 50.9446 42.5394 43.9768 43.7548Z" fill="#00F813"/>
</g>
<g opacity="0.01">
<path d="M57.4034 115.976C53.9301 115.976 50.4573 115.075 47.3479 113.272C25.5617 100.638 11.0481 81.445 5.37618 57.7666C1.21115 40.379 3.35103 26.4613 3.60864 24.9317C4.72849 18.2851 9.1137 12.6461 15.2801 9.92407C16.3528 9.45049 26.187 5.23778 40.9914 3.16018C60.6764 0.397845 80.6099 2.60966 98.6377 9.55792C105.245 12.1047 110.019 17.9487 111.195 24.9317C111.453 26.4614 113.593 40.379 109.428 57.7661C103.757 81.4445 89.244 100.638 67.4594 113.271C64.3498 115.075 60.8764 115.976 57.4034 115.976ZM43.4133 43.3501C43.6842 45.3328 44.0904 47.4743 44.6864 49.7036C46.9257 58.0806 51.1864 65.256 57.4029 71.1459C63.6178 65.2563 67.8789 58.0801 70.1178 49.7038C70.7149 47.4701 71.1213 45.3241 71.3922 43.3383C60.4221 41.2992 50.5798 42.0553 43.4133 43.3501Z" fill="#00F813"/>
</g>
<g opacity="0.01">
<path d="M57.4033 115.475C54.017 115.475 50.6309 114.596 47.5992 112.838C25.9347 100.275 11.5027 81.1917 5.86327 57.6499C1.72138 40.3588 3.84678 26.5343 4.10284 25.015C5.19462 18.5345 9.47017 13.0366 15.4825 10.3826C16.5484 9.91194 26.3237 5.72484 41.0609 3.65658C60.6603 0.90581 80.5089 3.10779 98.4572 10.0256C104.9 12.5085 109.554 18.2066 110.701 25.0152C110.957 26.5346 113.082 40.3588 108.941 57.6494C103.302 81.1912 88.871 100.275 67.2079 112.838C64.1762 114.596 60.7895 115.475 57.4033 115.475ZM42.8546 42.9473C43.1255 45.069 43.5487 47.3818 44.1924 49.7971C46.4954 58.4372 50.9229 65.8138 57.4028 71.8345C63.8819 65.8138 68.3087 58.4377 70.6113 49.7973C71.2564 47.3769 71.6799 45.0606 71.9509 42.9351C60.4859 40.73 50.2096 41.574 42.8546 42.9473Z" fill="#00F813"/>
</g>
<g opacity="0.01">
<path d="M57.4031 114.974C54.1036 114.974 50.8045 114.118 47.8504 112.405C26.3075 99.9123 11.9572 80.938 6.35048 57.5331C2.23172 40.3385 4.34247 26.6072 4.59673 25.0982C5.66042 18.7839 9.82663 13.4269 15.6845 10.8411C16.7442 10.3732 26.4601 6.21172 41.1304 4.1528C60.6468 1.4136 80.4076 3.60605 98.2769 10.4931C104.554 12.9125 109.089 18.4645 110.207 25.0984C110.461 26.6075 112.572 40.3385 108.453 57.5329C102.847 80.9377 88.4977 99.9119 66.9562 112.405C64.0024 114.118 60.7025 114.974 57.4031 114.974ZM42.3049 42.586C42.5741 44.8327 43.0109 47.3022 43.6985 49.8897C46.0644 58.7929 50.6577 66.3673 57.4027 72.5166C64.1469 66.3673 68.7395 58.7931 71.1052 49.89C71.7969 47.2869 72.2348 44.8027 72.5035 42.5451C60.5909 40.1959 49.8733 41.1335 42.3049 42.586Z" fill="#00F813"/>
</g>
<g opacity="0.01">
<path d="M57.4028 114.473C54.1901 114.473 50.9777 113.639 48.1016 111.971C26.6804 99.5493 12.4114 80.6846 6.83761 57.4162C2.74197 40.3183 4.83825 26.6802 5.09072 25.1814C6.12646 19.0332 10.1829 13.8173 15.8867 11.2995C17.468 10.6013 55.1095 -5.60672 98.0965 10.9607C104.209 13.3164 108.624 18.7223 109.712 25.1816C109.965 26.6804 112.061 40.3183 107.966 57.4161C102.392 80.6842 88.1245 99.5491 66.7046 111.971C63.8283 113.639 60.6153 114.473 57.4028 114.473ZM41.7536 42.183C42.0183 44.5629 42.4683 47.205 43.2042 49.9821C45.6323 59.1464 50.3922 66.918 57.4023 73.1932C64.4118 66.918 69.1708 59.1469 71.5988 49.9824C72.3386 47.1901 72.7895 44.5343 73.0536 42.1444C60.643 39.6158 49.4915 40.6526 41.7536 42.183Z" fill="#00F813"/>
</g>
<g opacity="0.01">
<path d="M57.4027 113.972C54.2769 113.972 51.1513 113.161 48.3527 111.538C27.053 99.1865 12.8659 80.431 7.32481 57.2996C3.25231 40.298 5.33393 26.7531 5.58467 25.2645C6.59257 19.2827 10.5394 14.2077 16.0889 11.758C17.6627 11.0635 55.1204 -5.06511 97.9161 11.4282C103.863 13.7203 108.159 18.98 109.218 25.2648C109.469 26.7534 111.55 40.2981 107.478 57.2993C101.938 80.4308 87.7513 99.1861 66.4531 111.538C63.6547 113.16 60.5285 113.972 57.4027 113.972ZM41.2034 41.7506C41.461 44.2673 41.9228 47.0937 42.71 50.074C45.1998 59.4986 50.1259 67.4652 57.4022 73.8643C64.6778 67.4652 69.6031 59.4991 72.0928 50.0743C72.8815 47.0889 73.3434 44.258 73.6006 41.738C60.6495 39.0025 49.065 40.1434 41.2034 41.7506Z" fill="#00F813"/>
</g>
<g opacity="0.01">
<path d="M57.4026 113.471C54.3636 113.471 51.3247 112.682 48.604 111.104C27.426 98.8234 13.3203 80.1777 7.81212 57.1829C3.76251 40.2777 5.82965 26.8261 6.07884 25.3479C7.05848 19.5321 10.8956 14.598 16.2913 12.2163C17.8568 11.5247 55.1315 -4.52418 97.7359 11.8958C103.518 14.1243 107.694 19.2378 108.724 25.3482C108.973 26.8263 111.04 40.2778 106.991 57.1824C101.483 80.1772 87.3782 98.823 66.2017 111.104C63.4808 112.682 60.4416 113.471 57.4026 113.471ZM40.6296 41.3618C41.502 50.4179 45.0777 63.7493 57.4021 74.4962C69.7311 63.7443 73.3038 50.4061 74.174 41.3495C60.6949 38.4144 48.6469 39.6738 40.6296 41.3618Z" fill="#00F813"/>
</g>
<g opacity="0.01">
<path d="M57.4033 112.97C54.4513 112.97 51.4992 112.203 48.8563 110.671C27.7997 98.4603 13.7757 79.9242 8.30023 57.066C4.27375 40.2575 6.32648 26.8989 6.57357 25.431C7.52544 19.7814 11.2529 14.9883 16.4942 12.6747C18.0526 11.9869 55.1428 -3.98309 97.5564 12.3633C103.173 14.5281 107.231 19.4955 108.23 25.4313C108.478 26.8992 110.53 40.2575 106.504 57.0658C101.029 79.9238 87.006 98.4599 65.951 110.67C63.3079 112.203 60.3556 112.97 57.4033 112.97ZM40.0893 40.9684C40.9019 50.2023 44.4824 64.0849 57.4029 75.1606C70.328 64.0799 73.9054 50.1905 74.7157 40.9566C60.7382 37.8291 48.245 39.2058 40.0893 40.9684Z" fill="#00F813"/>
</g>
<g opacity="0.01">
<path d="M57.4032 112.468C54.5379 112.468 51.6728 111.725 49.1076 110.237C28.1727 98.0974 14.23 79.6707 8.78744 56.9493C4.78409 40.2372 6.8221 26.972 7.06771 25.5142C7.9915 20.0308 11.6093 15.3788 16.6965 13.1332C18.2469 12.4488 55.1536 -3.44247 97.3758 12.8309C102.827 14.9319 106.766 19.7534 107.736 25.5145C107.982 26.9722 110.019 40.2372 106.017 56.949C100.574 79.6702 86.6329 98.0969 65.6993 110.237C63.1342 111.725 60.2685 112.468 57.4032 112.468ZM39.552 40.5769C40.3025 49.9779 43.8761 64.4172 57.4028 75.8202C70.9343 64.412 74.5043 49.9658 75.2529 40.5651C60.7732 37.24 47.8363 38.7405 39.552 40.5769Z" fill="#00F813"/>
</g>
<g opacity="0.0114">
<path d="M57.4031 111.967C54.6245 111.967 51.8462 111.246 49.3587 109.804C28.5455 97.7343 14.6845 79.4173 9.27445 56.8325C5.29448 40.2172 7.31783 27.0449 7.56164 25.5977C8.45741 20.2804 11.9658 15.7692 16.8987 13.5917C18.4414 12.9108 55.1639 -2.90082 97.1955 13.2985C102.482 15.3359 106.301 20.0113 107.242 25.5977C107.486 27.0449 109.509 40.217 105.529 56.8323C100.12 79.4169 86.2596 97.7341 65.4477 109.803C62.9603 111.246 60.1816 111.967 57.4031 111.967ZM39.0182 40.1867C39.7054 49.7441 43.2616 64.7473 57.4026 76.4752C71.5448 64.7428 75.1012 49.7314 75.7861 40.1756C60.806 36.648 47.4208 38.2782 39.0182 40.1867Z" fill="#00F813"/>
</g>
<g opacity="0.0117">
<path d="M57.403 111.466C54.7112 111.466 52.0198 110.768 49.61 109.37C28.9183 97.3713 15.1391 79.1638 9.76176 56.716C5.80468 40.1971 7.81356 27.118 8.05582 25.681C8.92358 20.5298 12.3223 16.1597 17.1011 14.05C18.6362 13.3724 55.175 -2.35974 97.0153 13.7664C102.136 15.7399 105.836 20.2691 106.747 25.6812C106.99 27.118 108.998 40.1969 105.042 56.7156C99.6648 79.1636 85.8866 97.3711 65.1963 109.37C62.7865 110.767 60.0946 111.466 57.403 111.466ZM38.488 39.798C39.1098 49.4993 42.6402 65.0739 57.4025 77.1258C72.1684 65.0701 75.6959 49.4884 76.3159 39.7877C60.8328 36.0515 46.9992 37.8189 38.488 39.798Z" fill="#00F813"/>
</g>
<g opacity="0.0134">
<path d="M57.4028 110.965C54.7979 110.965 52.1933 110.289 49.8612 108.937C29.2911 97.0085 15.5933 78.9105 10.2489 56.5992C6.31494 40.1768 8.30941 27.1909 8.54964 25.7642C9.38962 20.7792 12.6784 16.55 17.3031 14.5085C18.8301 13.834 55.1849 -1.81922 96.8348 14.234C101.791 16.1439 105.371 20.5272 106.253 25.7644C106.493 27.1909 108.488 40.1766 104.554 56.5988C99.2101 78.9103 85.5132 97.0081 64.9447 108.937C62.6126 110.289 60.0075 110.965 57.4028 110.965ZM37.9611 39.411C38.5165 49.245 42.0118 65.399 57.4023 77.7722C72.7979 65.3938 76.2892 49.2341 76.8422 39.401C60.8548 35.4532 46.5694 37.3629 37.9611 39.411Z" fill="#00F813"/>
</g>
<g opacity="0.0138">
<path d="M57.4035 110.464C54.8855 110.464 52.3676 109.81 50.1133 108.503C24.2793 93.5224 14.441 71.9455 10.7371 56.4825C6.82624 40.1566 8.80606 27.264 9.04473 25.8474C9.85639 21.0287 13.0358 16.9405 17.5063 14.967C19.0258 14.2963 55.1969 -1.27722 96.6555 14.7017C101.446 16.548 104.907 20.7851 105.76 25.8477C105.998 27.264 107.978 40.1565 104.068 56.4823C100.364 71.9451 90.5265 93.5222 64.6942 108.503C62.4398 109.81 59.9216 110.464 57.4035 110.464ZM37.4386 39.0316C37.9273 48.9865 41.3819 65.7231 57.403 78.4148C73.4311 65.7166 76.8805 48.9694 77.3664 39.0161C60.8892 34.8562 46.1571 36.9116 37.4386 39.0316Z" fill="#00F813"/>
</g>
<g opacity="0.0155">
<path d="M57.4034 109.963C54.9723 109.963 52.5412 109.332 50.3646 108.07C24.6842 93.178 14.9053 71.7332 11.2243 56.3656C7.33667 40.1363 9.3017 27.3366 9.53858 25.9307C10.3225 21.2781 13.3922 17.3308 17.7086 15.4253C19.2201 14.758 55.2072 -0.736377 96.4752 15.1691C101.1 16.9517 104.442 21.0427 105.265 25.9307C105.502 27.3368 107.467 40.1361 103.58 56.3654C99.8992 71.733 90.1212 93.1775 64.4426 108.07C62.266 109.332 59.8345 109.963 57.4034 109.963ZM36.9182 38.6437C37.3375 48.7075 40.7352 66.0404 57.4029 79.0535C74.0762 66.0353 77.4692 48.6937 77.8863 38.6317C60.8977 34.248 45.7096 36.4589 36.9182 38.6437Z" fill="#00F813"/>
</g>
<g opacity="0.016">
<path d="M57.4032 109.462C55.0588 109.462 52.7147 108.853 50.6157 107.636C25.0888 92.8335 15.3698 71.5212 11.7115 56.2489C7.847 40.1161 9.79737 27.4096 10.0327 26.014C10.7886 21.5275 13.7486 17.7213 17.9108 15.8838C19.4149 15.2198 55.2184 -0.194887 96.2946 15.6367C100.755 17.3557 103.977 21.3006 104.771 26.0141C105.006 27.4098 106.957 40.116 103.093 56.2486C99.4346 71.5208 89.716 92.8332 64.1911 107.636C62.092 108.853 59.7475 109.462 57.4032 109.462ZM36.4006 38.2573C36.7503 48.4175 40.0809 66.3557 57.4029 79.6888C74.7282 66.3519 78.0554 48.4073 78.4032 38.2487C60.8988 33.6349 45.2549 36.0086 36.4006 38.2573Z" fill="#00F813"/>
</g>
<g opacity="0.0178">
<path d="M57.4031 108.961C55.1455 108.961 52.8881 108.375 50.867 107.203C25.4938 92.4892 15.8341 71.3091 12.1985 56.1324C8.35717 40.0959 10.2933 27.4826 10.5267 26.0972C11.2545 21.7769 14.1052 18.1117 18.1132 16.3424C19.6089 15.6817 55.229 0.346208 96.1143 16.1044C100.409 17.7598 103.512 21.5585 104.277 26.0974C104.51 27.4828 106.446 40.0959 102.605 56.1319C98.97 71.3089 89.311 92.489 63.9394 107.203C61.9184 108.375 59.6606 108.961 57.4031 108.961ZM35.8861 37.8723C36.1653 48.1157 39.4188 66.6675 57.4028 80.3205C75.3885 66.6649 78.6393 48.109 78.9173 37.8667C60.8941 33.019 44.7911 35.564 35.8861 37.8723Z" fill="#00F813"/>
</g>
<g opacity="0.0183">
<path d="M57.4029 108.46C55.2323 108.46 53.0617 107.896 51.1182 106.769C25.8987 92.1448 16.2985 71.0971 12.6857 56.0156C8.86751 40.0756 10.789 27.5555 11.0207 26.1804C11.7206 22.0263 14.4613 18.5021 18.3152 16.8008C19.8036 16.1439 55.2394 0.887547 95.934 16.5719C100.064 18.1635 103.047 21.8163 103.783 26.1807C104.014 27.5558 105.936 40.0756 102.118 56.0154C98.5052 71.0969 88.9058 92.1446 63.688 106.769C61.7445 107.896 59.5735 108.46 57.4029 108.46ZM35.3746 37.4883C35.5828 47.8012 38.7489 66.9758 57.4027 80.9491C76.0566 66.9747 79.2209 47.7986 79.4284 37.4863C60.8845 32.3983 44.3198 35.122 35.3746 37.4883Z" fill="#00F813"/>
</g>
<g opacity="0.0202">
<path d="M57.4028 107.958C55.3189 107.958 53.2353 107.418 51.3694 106.336C26.3037 91.8001 16.7628 70.885 13.1731 55.8987C9.37789 40.0553 11.2847 27.6284 11.5147 26.2637C12.1864 22.2757 14.8178 18.8923 18.5175 17.2591C19.9983 16.6051 55.2498 1.42862 95.7537 17.0394C99.7183 18.5673 102.582 22.074 103.288 26.2637C103.518 27.6286 105.425 40.0553 101.63 55.8985C98.0406 70.8848 88.5007 91.7999 63.4365 106.335C61.5708 107.417 59.4867 107.958 57.4028 107.958ZM34.8658 37.1057C35.0032 47.4756 38.0688 67.2821 57.4026 81.5746C76.7348 67.2821 79.7996 47.4771 79.9369 37.1072C60.8703 31.7757 43.8392 34.6853 34.8658 37.1057Z" fill="#00F813"/>
</g>
<g opacity="0.0208">
<path d="M57.4026 107.457C55.4055 107.457 53.4086 106.939 51.6208 105.902C26.7085 91.4558 17.2271 70.6728 13.6601 55.7819C9.88817 40.0351 11.7805 27.7014 12.0087 26.3469C12.6525 22.5251 15.174 19.2828 18.7196 17.7177C20.1924 17.0673 55.2604 1.96966 95.5731 17.507C99.3725 18.9714 102.117 22.3318 102.794 26.3472C103.022 27.7016 104.914 40.0351 101.142 55.7817C97.5758 70.6726 88.0952 91.4556 63.1847 105.902C61.3967 106.939 59.3997 107.457 57.4026 107.457ZM34.3595 36.6753C34.4172 47.0723 37.3494 67.562 57.4024 82.1971C77.4234 67.5841 80.3765 47.1336 80.4427 36.722C60.6756 31.0525 43.278 34.1781 34.3595 36.6753Z" fill="#00F813"/>
</g>
<g opacity="0.0228">
<path d="M57.4035 106.956C55.4934 106.956 53.5832 106.46 51.8731 105.469C27.1143 91.1115 17.6925 70.4609 14.1482 55.6652C10.3994 40.0149 12.2773 27.7744 12.5037 26.4302C13.1196 22.7746 15.5316 19.6732 18.923 18.1762C20.3883 17.5291 55.2714 2.51139 95.3939 17.9746C99.028 19.3754 101.654 22.5897 102.301 26.4304C102.527 27.7747 104.405 40.0149 100.656 55.6652C97.1123 70.4607 87.6911 91.1114 62.9344 105.469C61.2242 106.46 59.3136 106.956 57.4035 106.956ZM33.8577 36.2992C33.8457 46.7229 36.658 67.8634 57.4032 82.8169C78.1159 67.8855 80.9503 46.7864 80.9468 36.3461C60.6498 30.4246 42.7809 33.7539 33.8577 36.2992Z" fill="#00F813"/>
</g>
<g opacity="0.0235">
<path d="M57.4034 106.455C55.58 106.455 53.7567 105.982 52.1243 105.035C27.5192 90.7671 18.157 70.2488 14.6354 55.5485C10.9097 39.9945 12.773 27.8472 12.9978 26.5135C13.5856 23.0239 15.8879 20.0634 19.1253 18.6345C20.5827 17.9907 55.2831 3.05284 95.2134 18.4421C98.6826 19.7792 101.189 22.8473 101.806 26.5135C102.031 27.8472 103.894 39.9945 100.169 55.5483C96.6478 70.2486 87.2859 90.7666 62.6827 105.035C61.0503 105.982 59.2267 106.455 57.4034 106.455ZM33.3571 35.9238C33.2757 46.3591 35.953 68.1601 57.4032 83.4338C78.8186 68.1837 81.5201 46.4254 81.4472 35.9712C60.6179 29.7924 42.2735 33.335 33.3571 35.9238Z" fill="#00F813"/>
</g>
<g opacity="0.0255">
<path d="M57.4032 105.954C55.6665 105.954 53.9301 105.503 52.3755 104.602C27.9242 90.4225 18.6213 70.0366 15.1227 55.4317C11.3565 39.7089 13.4027 27.1245 13.4917 26.5967C14.0516 23.2733 16.2443 20.4539 19.3273 19.0929C20.7772 18.4528 55.2942 3.59367 95.0331 18.9097C98.3371 20.1831 100.724 23.1052 101.312 26.5967C101.401 27.1247 103.447 39.7089 99.6813 55.4315C96.1831 70.0364 86.8809 90.4223 62.4311 104.601C60.8764 105.503 59.1398 105.954 57.4032 105.954ZM32.9004 35.5374C32.8619 39.4842 33.1974 45.1619 34.7934 51.4832C38.2011 64.9776 45.7962 75.91 57.4029 84.0533C69.0088 75.91 76.603 64.9776 80.0102 51.4834C81.6 45.1867 81.9391 39.5299 81.9036 35.5848C60.5864 29.1695 41.8078 32.9119 32.9004 35.5374Z" fill="#00F813"/>
</g>
<g opacity="0.0263">
<path d="M57.4032 105.453C55.7535 105.453 54.1039 105.024 52.6268 104.168C28.3292 90.0782 19.0858 69.8246 15.61 55.315C11.8672 39.6905 13.8977 27.2038 13.9859 26.6799C14.5178 23.5228 16.6008 20.8443 19.5297 19.5512C20.9721 18.9145 55.3046 4.13491 94.8528 19.3773C97.9915 20.5871 100.259 23.363 100.818 26.6799C100.906 27.204 102.936 39.6903 99.1939 55.3148C95.7183 69.8243 86.4758 90.078 62.1797 104.168C60.7029 105.025 59.053 105.453 57.4032 105.453ZM32.403 35.1645C32.3405 39.1435 32.6468 45.0107 34.298 51.5677C37.7595 65.3128 45.5212 76.4232 57.4029 84.6646C69.2837 76.4232 77.0446 65.313 80.5058 51.5677C82.1492 45.0408 82.4605 39.1973 82.4002 35.212C60.5416 28.5305 41.275 32.5037 32.403 35.1645Z" fill="#00F813"/>
</g>
<g opacity="0.0285">
<path d="M57.4032 104.952C55.8404 104.952 54.2774 104.546 52.8783 103.735C28.7344 89.7339 19.5502 69.6124 16.0975 55.1983C12.3782 39.6718 14.3924 27.283 14.4801 26.7631C14.984 23.7721 16.9575 21.2347 19.7323 20.0097C21.1666 19.3768 55.3143 4.6755 94.6728 19.8451C97.6462 20.9909 99.7944 23.6209 100.324 26.7633C100.411 27.283 102.425 39.6718 98.7065 55.198C95.254 69.6124 86.0708 89.7336 61.9285 103.734C60.5293 104.546 58.9661 104.952 57.4032 104.952ZM31.9093 34.7923C31.8214 38.8032 32.0966 44.8593 33.8025 51.6517C37.3173 65.6475 45.2461 76.9354 57.403 85.2737C69.559 76.9354 77.4869 65.6474 81.0015 51.6518C82.6996 44.8895 82.9799 38.8582 82.8945 34.8401C60.4889 27.8849 40.7336 32.1008 31.9093 34.7923Z" fill="#00F813"/>
</g>
<g opacity="0.0294">
<path d="M57.4033 104.451C55.9272 104.451 54.4512 104.067 53.1297 103.301C29.1393 89.3894 20.0148 69.4005 16.5849 55.0815C12.8889 39.6534 14.8874 27.3622 14.9744 26.8464C15.4502 24.0217 17.3141 21.6251 19.9347 20.4682C21.361 19.8383 55.3261 5.21743 94.4926 20.3127C97.3008 21.3949 99.3297 23.8788 99.8295 26.8466C99.9165 27.3622 101.915 39.6532 98.2192 55.0815C94.7896 69.4003 85.6657 89.3891 61.6771 103.301C60.3555 104.067 58.8794 104.451 57.4033 104.451ZM31.4175 34.4212C31.3045 38.4555 31.5452 44.7022 33.307 51.7352C36.8749 65.9808 44.9711 77.4461 57.4031 85.8805C69.8342 77.4461 77.9294 65.981 81.4972 51.7355C83.2507 44.7343 83.4971 38.512 83.3868 34.4691C60.4312 27.2372 40.178 31.7048 31.4175 34.4212Z" fill="#00F813"/>
</g>
<g opacity="0.0317">
<path d="M57.4032 103.949C56.0138 103.949 54.6249 103.589 53.381 102.867C29.5443 89.0449 20.4792 69.1884 17.072 54.9649C13.3999 39.6346 15.3823 27.4413 15.4684 26.9297C15.9164 24.271 17.6704 22.0155 20.1369 20.9266C21.5559 20.3004 55.3368 5.75783 94.3124 20.7802C96.9555 21.7988 98.865 24.1364 99.3355 26.9297C99.4216 27.4413 101.404 39.6346 97.7319 54.9647C94.3251 69.1882 85.2607 89.0448 61.4257 102.867C60.1818 103.589 58.7924 103.949 57.4032 103.949ZM30.9276 34.0511C30.7899 38.1003 30.993 44.5403 32.811 51.8184C36.4318 66.3136 44.6958 77.9557 57.403 86.4854C70.1092 77.9557 78.3724 66.3136 81.9928 51.8187C83.8027 44.5725 84.012 38.1579 83.8767 34.099C60.363 26.5834 39.6069 31.3146 30.9276 34.0511Z" fill="#00F813"/>
</g>
<g opacity="0.0327">
<path d="M57.4033 103.448C56.1009 103.448 54.7984 103.11 53.6324 102.434C29.9494 88.7006 20.9439 68.9762 17.5594 54.8481C13.9109 39.6161 15.877 27.5203 15.9627 27.0129C16.3825 24.5204 18.027 22.4058 20.3393 21.385C21.7507 20.7624 55.3474 6.2995 94.1322 21.2478C96.61 22.2028 98.4 24.3943 98.8411 27.0129C98.9268 27.5205 100.893 39.6161 97.2447 54.8478C93.8606 68.9762 84.8556 88.7004 61.1742 102.434C60.0083 103.11 58.7057 103.448 57.4033 103.448ZM30.4395 33.704C30.2782 37.7608 30.443 44.3859 32.3153 51.9014C35.9886 66.6462 44.4194 78.4642 57.4031 87.0881C70.3856 78.4642 78.8158 66.6461 82.4888 51.9014C84.3556 44.407 84.5248 37.7975 84.3649 33.7316C60.437 25.9954 39.0674 30.9753 30.4395 33.704Z" fill="#00F813"/>
</g>
<g opacity="0.0352">
<path d="M57.4034 102.947C56.1877 102.947 54.9722 102.632 53.884 102.001C30.3545 88.356 21.4084 68.7643 18.0468 54.7313C14.4216 39.5976 16.3721 27.5996 16.4568 27.0962C16.8488 24.7699 18.3836 22.7963 20.5418 21.8436C21.9454 21.2245 55.3582 6.84079 93.9519 21.7155C96.2647 22.6068 97.9354 24.6522 98.3472 27.0964C98.4319 27.5996 100.382 39.5976 96.7573 54.7312C93.396 68.7641 84.4506 88.3562 60.9228 102C59.8347 102.631 58.619 102.947 57.4034 102.947ZM29.9539 33.333C29.7681 37.3856 29.8882 44.2108 31.8196 51.9837C35.5448 66.9776 44.1436 78.9716 57.4032 87.6887C70.6618 78.9716 79.2597 66.9776 82.9847 51.9837C84.9103 44.2335 85.0353 37.4254 84.8508 33.3629C60.3467 25.3278 38.4617 30.5968 29.9539 33.333Z" fill="#00F813"/>
</g>
<g opacity="0.0364">
<path d="M57.4034 102.446C56.2747 102.446 55.146 102.153 54.1354 101.567C30.7596 88.0118 21.8729 68.5523 18.5342 54.6146C14.9326 39.5791 16.8668 27.6787 16.9511 27.1796C17.315 25.0194 18.7402 23.1867 20.7442 22.302C22.1399 21.6858 55.3693 7.38267 93.7717 22.183C95.9192 23.0107 97.4708 24.9099 97.8529 27.1796C97.9372 27.6787 99.8714 39.5791 96.27 54.6146C92.9315 68.5521 84.0458 88.0116 60.6716 101.567C59.6609 102.153 58.532 102.446 57.4034 102.446ZM29.4712 32.9462C29.2605 36.9803 29.3291 44.0171 31.3235 52.0658C35.1006 67.3088 43.8667 79.4779 57.4031 88.2878C70.9386 79.4779 79.7039 67.3088 83.4808 52.0658C85.4663 44.0522 85.5428 37.0414 85.3346 32.9936C60.1069 24.5923 37.7968 30.1926 29.4712 32.9462Z" fill="#00F813"/>
</g>
<g opacity="0.0392">
<path d="M57.4035 101.945C56.3615 101.945 55.3196 101.674 54.3869 101.134C31.1645 87.6673 22.3375 68.34 19.0217 54.4977C15.4434 39.5603 17.3618 27.7579 17.4452 27.2626C17.7811 25.2687 19.0967 23.577 20.9468 22.7603C22.3346 22.1473 55.3794 7.92308 93.5917 22.6504C95.5739 23.4145 97.0059 25.1676 97.359 27.2626C97.4424 27.7578 99.3606 39.5602 95.7828 54.4976C92.4672 68.3399 83.6408 87.667 60.4203 101.133C59.4875 101.674 58.4454 101.945 57.4035 101.945ZM28.9899 32.58C28.7561 36.5858 28.7716 43.8288 30.8275 52.1474C34.6562 67.6397 43.5891 79.9829 57.4032 88.8848C71.2164 79.983 80.1484 67.6397 83.9769 52.1474C86.0236 43.8644 86.0478 36.6479 85.8163 32.6265C60.0003 23.9171 37.1543 29.8366 28.9899 32.58Z" fill="#00F813"/>
</g>
<g opacity="0.0407">
<path d="M57.4034 101.444C56.4482 101.444 55.4933 101.196 54.6381 100.7C31.5695 87.3228 22.8018 68.128 19.509 54.3812C15.9544 39.5419 17.8567 27.8368 17.9394 27.3459C18.2473 25.5181 19.4531 23.9674 21.1489 23.2189C22.5292 22.6094 55.39 8.46437 93.4114 23.1181C95.2285 23.8186 96.5412 25.4256 96.8648 27.3459C96.9473 27.8371 98.8497 39.5419 95.2952 54.381C92.0026 68.1278 83.2356 87.3228 60.1688 100.7C59.3137 101.196 58.3585 101.444 57.4034 101.444ZM28.5104 32.2146C28.2546 36.1785 28.2123 43.6317 30.3313 52.2286C34.2112 67.9694 43.3121 80.4874 57.4033 89.4803C71.4932 80.4874 80.5934 67.9697 84.4728 52.2286C86.5827 43.6676 86.5495 36.2412 86.296 32.2604C59.8825 23.2352 36.4904 29.4905 28.5104 32.2146Z" fill="#00F813"/>
</g>
<g opacity="0.0438">
<path d="M57.4036 100.943C56.5353 100.943 55.6671 100.717 54.8897 100.266C31.9748 86.9785 23.2665 67.9161 19.9963 54.2644C16.4652 39.5233 18.3516 27.9161 18.4337 27.4292C18.7137 25.7675 19.8099 24.3579 21.3514 23.6774C22.7239 23.0713 55.4011 9.00585 93.2314 23.5858C94.8832 24.2224 96.0766 25.6837 96.3707 27.4294C96.4528 27.9161 98.3389 39.5233 94.808 54.2643C91.5383 67.9159 82.8308 86.9785 59.9176 100.266C59.1402 100.717 58.2717 100.943 57.4036 100.943ZM28.0324 31.8605C27.7565 35.7702 27.6531 43.4329 29.8353 52.3094C33.7661 68.299 43.0349 80.9908 57.4036 90.0741C71.7708 80.9908 81.039 68.299 84.9693 52.3096C87.144 43.4619 87.0485 35.8207 86.774 31.8954C59.866 22.5966 35.8288 29.1807 28.0324 31.8605Z" fill="#00F813"/>
</g>
<g opacity="0.0459">
<path d="M57.4035 100.442C56.6221 100.442 55.8406 100.239 55.141 99.8332C32.3798 86.6342 23.7312 67.7039 20.4837 54.1477C16.9761 39.5048 18.8465 27.9953 18.9279 27.5126C19.1797 26.0171 20.1665 24.7483 21.5538 24.1359C22.9186 23.5328 55.4124 9.54754 93.0512 24.0534C94.5378 24.6264 95.6119 25.9414 95.8766 27.5126C95.9578 27.9953 97.8281 39.5048 94.3209 54.1477C91.0738 67.7039 82.4256 86.634 59.666 99.8329C58.9663 100.239 58.1849 100.442 57.4035 100.442ZM27.557 31.495C27.262 35.3298 27.0892 43.2141 29.339 52.3899C33.3203 68.6277 42.7569 81.4933 57.4035 90.6661C72.0488 81.4932 81.4845 68.6279 85.4653 52.3899C87.7076 43.2448 87.5434 35.3824 87.2498 31.5301C59.7051 21.8928 35.1038 28.8572 27.557 31.495Z" fill="#00F813"/>
</g>
<g opacity="0.0498">
<path d="M57.4026 99.9404C56.708 99.9404 56.0134 99.7602 55.3915 99.3996C32.784 86.2896 24.1947 67.4919 20.9701 54.0309C17.486 39.4861 19.3405 28.0744 19.4211 27.5957C19.6451 26.2664 20.5222 25.1385 21.7554 24.5943C23.1123 23.995 55.4222 10.0884 92.8699 24.5208C94.1914 25.0302 95.1461 26.1992 95.3815 27.5957C95.4622 28.0744 97.3163 39.486 93.8326 54.0309C90.6083 67.4916 82.0197 86.2896 59.4137 99.3994C58.792 99.7602 58.0973 99.9404 57.4026 99.9404ZM27.0828 31.1306C26.7709 34.8697 26.5217 42.9824 28.8418 52.47C32.8734 68.9563 42.4777 81.9948 57.4026 91.2567C72.3263 81.9948 81.9296 68.9562 85.961 52.47C88.2729 43.0152 88.0333 34.9248 87.7225 31.1655C59.5289 21.184 34.3465 28.5485 27.0828 31.1306Z" fill="#00F813"/>
</g>
<g opacity="0.0535">
<path d="M57.4016 99.4393C56.7939 99.4393 56.1862 99.2814 55.6419 98.9659C33.1879 85.9451 24.6582 67.2796 21.4566 53.914C17.996 39.4675 19.8343 28.1536 19.9144 27.6789C20.1104 26.5157 20.8775 25.529 21.9566 25.0527C23.3062 24.4568 55.4319 10.6292 92.6887 24.9885C93.8452 25.4342 94.6804 26.457 94.8865 27.6789C94.9663 28.1536 96.8046 39.4676 93.3442 53.9141C90.1428 67.2797 81.6139 85.9453 59.1614 98.966C58.6172 99.2814 58.0093 99.4393 57.4016 99.4393ZM26.6108 30.7622C26.2847 34.3791 25.9499 42.7319 28.3446 52.5495C32.426 69.284 42.198 82.4953 57.4016 91.8459C72.604 82.4955 82.375 69.284 86.4563 52.5495C88.8416 42.7695 88.5183 34.4432 88.1931 30.8013C59.237 20.4239 33.529 28.2437 26.6108 30.7622Z" fill="#00F813"/>
</g>
<g opacity="0.0665">
<path d="M57.4027 98.9382C56.8818 98.9382 56.3607 98.8029 55.8943 98.5324C33.594 85.6009 25.1238 67.0676 21.945 53.7974C18.5078 39.4489 20.3303 28.2325 20.4094 27.7621C20.5774 26.7651 21.2351 25.9193 22.1601 25.5109C22.4995 25.3613 30.6192 21.8208 43.3586 20.033C55.0904 18.3865 73.1397 17.991 92.5096 25.4562C93.5008 25.8381 94.2168 26.7148 94.3932 27.7623C94.4725 28.2325 96.2948 39.4488 92.8579 53.7972C89.6794 67.0676 81.2099 85.6008 58.9111 98.5323C58.4447 98.803 57.9236 98.9382 57.4027 98.9382ZM26.1425 30.4015C25.806 33.8702 25.3773 42.4687 27.8492 52.629C31.9804 69.6113 41.9204 82.9954 57.4027 92.4335C72.8837 82.9954 82.8228 69.6114 86.9538 52.629C89.4163 42.5056 88.9996 33.9332 88.6638 30.4379C59.021 19.6956 32.6876 27.9782 26.1425 30.4015Z" fill="#00F813"/>
</g>
<path d="M57.4027 98.4371C56.9685 98.4371 56.5345 98.3242 56.146 98.0989C33.9991 85.2565 25.5883 66.8557 22.4322 53.6807C19.0188 39.4304 20.8251 28.3118 20.9038 27.8455C21.0437 27.0147 21.5918 26.3097 22.3626 25.9694C22.6994 25.8208 30.7572 22.3075 43.4284 20.5293C55.1009 18.8905 73.06 18.4968 92.3295 25.9238C93.1554 26.2421 93.752 26.9726 93.8991 27.8455C93.9778 28.3118 95.7841 39.4304 92.3706 53.6807C89.215 66.8554 80.8048 85.2562 58.6598 98.0989C58.2711 98.3243 57.8369 98.4371 57.4027 98.4371ZM25.675 30.042C25.3331 33.326 24.7986 42.1824 27.3526 52.708C31.5335 69.9393 41.6398 83.4943 57.4027 93.0199C73.1642 83.4944 83.2697 69.9393 87.4504 52.708C89.9954 42.2188 89.4733 33.3876 89.1312 30.0749C58.77 18.9502 31.785 27.7397 25.675 30.042Z" fill="#00F813"/>
<path d="M57.4029 97.8802C57.0652 97.8802 56.7275 97.7926 56.4253 97.6172C34.4493 84.8736 26.1044 66.6198 22.974 53.5509C19.5866 39.4097 21.3751 28.3995 21.4529 27.938C21.5616 27.2918 21.9881 26.7434 22.5876 26.4787C22.9215 26.3315 30.9106 22.8482 43.5059 21.0807C55.1137 19.4519 72.9716 19.0593 92.1294 26.4432C92.7718 26.6907 93.2358 27.2591 93.3502 27.938C93.428 28.3998 95.2165 39.4097 91.8293 53.5509C88.699 66.6198 80.3549 84.8736 58.3805 97.6172C58.0782 97.7926 57.7406 97.8802 57.4029 97.8802ZM25.1584 29.6433C24.8181 32.6662 24.1478 41.8288 26.8009 52.7951C31.0367 70.3018 41.3292 84.048 57.4029 93.6696C73.4752 84.048 83.767 70.302 88.0024 52.7951C90.6466 41.8649 89.9893 32.7257 89.6478 29.6718C58.4421 18.1031 30.6899 27.5163 25.1584 29.6433Z" fill="#94FC9C"/>
<path d="M57.4032 97.3235C57.162 97.3235 56.9209 97.2608 56.7049 97.1355C34.8995 84.4912 26.621 66.3844 23.5157 53.4214C20.1543 39.3894 21.9252 28.4878 22.0021 28.0304C22.08 27.5689 22.3846 27.1774 22.8127 26.9883C23.1438 26.8421 31.0639 23.3891 43.5835 21.632C55.1255 20.0119 72.8828 19.6218 91.9292 26.9629C92.3881 27.1397 92.7197 27.5454 92.8013 28.0304C92.8783 28.4877 94.649 39.3893 91.2881 53.4213C88.183 66.3843 79.9051 84.4911 58.1013 97.1355C57.8856 97.2608 57.6443 97.3235 57.4032 97.3235ZM24.6445 29.2463C24.3185 31.923 23.4847 41.4227 26.2493 52.8819C30.5394 70.6642 41.0183 84.6008 57.4032 94.3178C73.7866 84.6008 84.2647 70.6642 88.5543 52.8819C91.3108 41.4556 90.49 31.9776 90.1617 29.2692C58.0329 17.2185 29.4536 27.3557 24.6445 29.2463Z" fill="#CAFECE"/>
<path d="M57.4033 96.7667C57.2585 96.7667 57.1139 96.7291 56.9844 96.6539C35.3497 84.1082 27.1372 66.1487 24.0572 53.2916C20.7221 39.3686 22.4752 28.5756 22.5515 28.1229C22.598 27.8459 22.7808 27.6111 23.0378 27.4977C23.3659 27.3528 31.2173 23.9299 43.661 22.1834C55.1381 20.5722 72.794 20.1843 91.7291 27.4825C92.0045 27.5887 92.2033 27.832 92.2523 28.1229C92.3286 28.5756 94.0815 39.3686 90.7468 53.2915C87.667 66.1488 79.4552 84.1083 57.8223 96.654C57.6926 96.7291 57.548 96.7667 57.4033 96.7667ZM24.1337 28.8508C23.8434 31.0385 22.8009 40.9269 25.6976 52.9682C28.689 65.4029 36.6207 82.7436 57.4033 94.9642C78.1842 82.7436 86.1153 65.4029 89.1065 52.9682C91.996 40.956 90.9653 31.0861 90.6721 28.8665C57.4934 16.2826 27.9818 27.2979 24.1337 28.8508Z" fill="#ECFEED"/>
<path d="M57.4033 96.21C57.355 96.21 57.3067 96.1973 57.2636 96.1724C35.7997 83.7257 27.6533 65.913 24.5987 53.1618C21.2901 39.3489 23.0821 28.3252 23.1005 28.2155C23.1161 28.1232 23.177 28.0449 23.2626 28.007C23.3423 27.9719 31.3712 24.4706 43.7385 22.7349C55.1497 21.1332 72.7048 20.7469 91.529 28.0019C91.6208 28.0373 91.6871 28.1185 91.7033 28.2154C91.7218 28.3251 93.5138 39.3487 90.2051 53.1617C87.151 65.9129 79.005 83.7257 57.543 96.1723C57.4998 96.1973 57.4515 96.21 57.4033 96.21ZM23.6266 28.4573C23.4264 29.8156 22.0661 40.2173 25.1456 53.0544C28.1704 65.6645 36.2238 83.271 57.4032 95.6094C78.5811 83.271 86.6336 65.6645 89.6583 53.0544C92.733 40.2367 91.3814 29.8469 91.1781 28.4637C56.6503 15.2261 25.9545 27.4848 23.6266 28.4573Z" fill="white"/>
<g opacity="0.01">
<path d="M51.6266 108.713C41.3668 108.713 31.1068 104.799 23.279 96.9707L11.7421 85.4341C-3.91404 69.778 -3.91404 44.3943 11.7421 28.7385C21.1048 19.376 33.9478 15.6129 46.106 17.4476L51.5621 11.9915C67.2182 -3.66465 92.6018 -3.66465 108.258 11.9915C123.914 27.6476 123.914 53.0312 108.258 68.6873L79.9746 96.9707C72.1464 104.799 61.8865 108.713 51.6266 108.713Z" fill="#00F813"/>
</g>
<g opacity="0.01">
<path d="M51.6266 107.802C41.5999 107.802 31.5732 103.976 23.9231 96.3263L12.3864 84.7898C-2.91397 69.4894 -2.91397 44.6828 12.3864 29.3827C21.653 20.1159 34.4049 16.4604 46.4227 18.4197L52.2064 12.6359C67.5067 -2.66429 92.3132 -2.66429 107.613 12.6359C122.914 27.9361 122.914 52.7427 107.613 68.0429L79.3302 96.3263C71.68 103.976 61.6533 107.802 51.6266 107.802Z" fill="#00F813"/>
</g>
<g opacity="0.01">
<path d="M51.6266 106.89C41.833 106.89 32.0394 103.154 24.5673 95.6821L13.0307 84.1454C-1.91386 69.2009 -1.91386 44.9713 13.0307 30.0268C22.1993 20.8581 34.8647 17.3141 46.7343 19.3964L52.8507 13.2801C67.7949 -1.66417 92.025 -1.66417 106.969 13.2801C121.914 28.2246 121.914 52.4542 106.969 67.3987L78.6858 95.6821C71.2138 103.154 61.4201 106.89 51.6266 106.89Z" fill="#00F813"/>
</g>
<g opacity="0.01">
<path d="M51.6265 105.979C42.0661 105.979 32.5059 102.332 25.2115 95.0379L13.6748 83.5012C-0.913745 68.9126 -0.913745 45.2596 13.6748 30.671C22.7457 21.6004 35.3205 18.1703 47.0409 20.3783L53.4948 13.9243C68.0837 -0.664049 91.7362 -0.664049 106.325 13.9243C120.914 28.5131 120.914 52.1656 106.325 66.7545L78.0414 95.0379C70.7472 102.332 61.1867 105.979 51.6265 105.979Z" fill="#00F813"/>
</g>
<g opacity="0.01">
<path d="M51.6266 105.068C42.2995 105.068 32.9721 101.51 25.8559 94.3937L14.319 82.857C0.0863585 68.6242 0.0863585 45.5482 14.319 31.3155C23.29 22.3443 35.7738 19.0278 47.3423 21.3655L54.1391 14.5685C68.3721 0.336054 91.4482 0.336054 105.681 14.5685C119.914 28.8014 119.914 51.8773 105.681 66.11L77.3973 94.3937C70.281 101.51 60.9537 105.068 51.6266 105.068Z" fill="#00F813"/>
</g>
<g opacity="0.01">
<path d="M51.6265 104.157C42.5326 104.157 33.4386 100.688 26.5001 93.7492L14.9634 82.2126C1.08642 68.3356 1.08642 45.8366 14.9634 31.9596C23.833 23.0903 36.2265 19.8886 47.6379 22.3584L54.7835 15.2128C68.6605 1.33581 91.1595 1.33581 105.036 15.2128C118.913 29.0898 118.913 51.5888 105.036 65.4658L76.7531 93.7492C69.8145 100.688 60.7205 104.157 51.6265 104.157Z" fill="#00F813"/>
</g>
<g opacity="0.01">
<path d="M51.6266 103.246C42.7658 103.246 33.9051 99.8656 27.1443 93.1051L15.6076 81.5685C2.08652 68.0474 2.08652 46.1253 15.6076 32.604C24.3751 23.8363 36.6758 20.755 47.9277 23.3571L55.4277 15.8571C68.9488 2.33603 90.8712 2.33603 104.392 15.8571C117.913 29.3784 117.913 51.3004 104.392 64.8217L76.1089 93.1051C69.3483 99.8656 60.4874 103.246 51.6266 103.246Z" fill="#00F813"/>
</g>
<g opacity="0.01">
<path d="M51.6265 102.335C42.9989 102.335 34.3712 99.0434 27.7886 92.4606L16.252 80.9242C3.08658 67.7588 3.08658 46.4134 16.252 33.2483C24.9164 24.5836 37.1235 21.6209 48.2115 24.3621L56.0721 16.5015C69.2377 3.33587 90.5828 3.3363 103.748 16.5015C116.913 29.6667 116.913 51.012 103.748 64.1774L75.4645 92.4605C68.8817 99.0434 60.2542 102.335 51.6265 102.335Z" fill="#00F813"/>
</g>
<g opacity="0.01">
<path d="M51.6265 101.424C43.2321 101.424 34.8374 98.2213 28.4328 91.8164L16.8962 80.2797C4.0867 67.4703 4.0867 46.7019 16.8962 33.8925C25.4563 25.3323 37.57 22.4924 48.4887 25.3733L56.7162 17.1457C69.5255 4.33604 90.2943 4.33604 103.103 17.1457C115.913 29.9552 115.913 50.7235 103.103 63.533L74.8201 91.8163C68.4155 98.2212 60.0208 101.424 51.6265 101.424Z" fill="#00F813"/>
</g>
<g opacity="0.01">
<path d="M51.6266 100.513C43.4654 100.513 35.3041 97.3992 29.0772 91.1723L17.5405 79.6357C5.08675 67.1819 5.08675 46.9906 17.5405 34.5367C25.9943 26.083 38.015 23.3675 48.759 26.3915L57.3605 17.79C69.8143 5.33627 90.0056 5.33627 102.459 17.79C114.913 30.2438 114.913 50.4352 102.459 62.8889L74.176 91.1723C67.9492 97.3991 59.7879 100.513 51.6266 100.513Z" fill="#00F813"/>
</g>
<g opacity="0.01">
<path d="M51.6266 99.6014C43.6984 99.6014 35.7703 96.577 29.7213 90.5281L18.1849 78.9912C6.08681 66.8933 6.08681 47.2791 18.1849 35.1812C26.5317 26.8346 38.4558 24.2467 49.0222 27.417L58.005 18.4342C70.1024 6.33639 89.7174 6.33639 101.815 18.4342C113.913 30.5321 113.913 50.1468 101.815 62.2447L73.5318 90.5281C67.4828 96.577 59.5547 99.6014 51.6266 99.6014Z" fill="#00F813"/>
</g>
<g opacity="0.01">
<path d="M51.6266 98.6903C43.9318 98.6903 36.2368 95.7547 30.3658 89.8837L18.8291 78.3471C7.08692 66.6051 7.08692 47.5674 18.8291 35.8254C27.0674 27.5872 38.8968 25.1287 49.2773 28.4502L58.6492 19.0786C70.3911 7.33713 89.4288 7.33669 101.171 19.0786C112.913 30.8206 112.913 49.8583 101.171 61.6003L72.8874 89.8837C67.0164 95.7547 59.3217 98.6903 51.6266 98.6903Z" fill="#00F813"/>
</g>
<g opacity="0.0114">
<path d="M51.6266 97.779C44.1649 97.779 36.7033 94.9324 31.01 89.2393L19.4733 77.7027C8.08702 66.3164 8.08702 47.8557 19.4733 36.4694C27.6005 28.3417 39.3338 26.0156 49.5245 29.4915L59.2934 19.7226C70.6799 8.33659 89.1401 8.33659 100.527 19.7226C111.913 31.1089 111.913 49.5696 100.527 60.9559L72.2433 89.2393C66.55 94.9324 59.0883 97.779 51.6266 97.779Z" fill="#00F813"/>
</g>
<g opacity="0.0117">
<path d="M51.6266 96.8679C44.398 96.8679 37.1694 94.1103 31.6541 88.5952L20.1177 77.0583C9.08708 66.028 9.08708 48.1444 20.1177 37.1138C28.133 29.0983 39.7691 26.9079 49.7628 30.5418L59.9375 20.3669C70.9681 9.33683 88.852 9.33683 99.8821 20.3669C110.913 31.3973 110.913 49.2812 99.8821 60.3118L71.5987 88.5952C66.0836 94.1103 58.8551 96.8679 51.6266 96.8679Z" fill="#00F813"/>
</g>
<g opacity="0.0134">
<path d="M51.6266 95.9568C44.6311 95.9568 37.6356 93.2882 32.2986 87.9508L20.7619 76.4142C10.0872 65.7397 10.0872 48.4326 20.7619 37.7581C28.6646 29.8555 40.202 27.8039 49.9918 31.6013L60.582 21.0114C71.2562 10.3367 88.5633 10.3367 99.238 21.0114C109.913 31.6858 109.913 48.9929 99.238 59.6674L70.9546 87.9508C65.6172 93.2881 58.622 95.9568 51.6266 95.9568Z" fill="#00F813"/>
</g>
<g opacity="0.0138">
<path d="M51.6266 95.0457C44.8642 95.0457 38.1022 92.466 32.9428 87.3066L21.4061 75.77C11.0873 65.4512 11.0873 48.7211 21.4061 38.4023C29.1932 30.6155 40.632 28.7053 50.2109 32.671L61.2262 21.6556C71.5449 11.3368 88.275 11.3368 98.5938 21.6556C108.913 31.9744 108.913 48.7044 98.5938 59.0232L70.3103 87.3066C65.151 92.466 58.3886 95.0457 51.6266 95.0457Z" fill="#00F813"/>
</g>
<g opacity="0.0155">
<path d="M51.6265 94.1345C45.0975 94.1345 38.5685 91.6438 33.5869 86.6624L22.0502 75.1257C12.0874 65.1627 12.0874 49.0097 22.0502 39.0465C29.7208 31.376 41.0602 29.6115 50.4188 33.7514L61.8703 22.2998C71.8336 12.3369 87.9862 12.3369 97.9495 22.2998C107.912 32.2628 107.912 48.4159 97.9495 58.379L69.6661 86.6624C64.6844 91.6438 58.1554 94.1345 51.6265 94.1345Z" fill="#00F813"/>
</g>
<g opacity="0.016">
<path d="M51.6265 93.2234C45.3306 93.2234 39.0347 90.8217 34.2313 86.0179L22.6946 74.4813C13.0875 64.8741 13.0875 49.2981 22.6946 39.6909C30.2457 32.1392 41.4856 30.524 50.6151 34.8435L62.5146 22.9442C72.1215 13.3368 87.698 13.3368 97.3049 22.9442C106.912 32.5514 106.912 48.1274 97.3049 57.7345L69.0216 86.0179C64.2181 90.8217 57.9223 93.2234 51.6265 93.2234Z" fill="#00F813"/>
</g>
<g opacity="0.0178">
<path d="M51.6265 92.3122C45.5638 92.3122 39.5012 89.9995 34.8755 85.3738L23.3388 73.8372C14.0876 64.5859 14.0876 49.5865 23.3388 40.3352C30.7692 32.904 41.9079 31.4413 50.799 35.9483L63.1589 23.5884C72.41 14.3369 87.4094 14.3369 96.6609 23.5884C105.912 32.8396 105.912 47.8391 96.6609 57.0904L68.3775 85.3738C63.7517 89.9995 57.6892 92.3122 51.6265 92.3122Z" fill="#00F813"/>
</g>
<g opacity="0.0183">
<path d="M51.6265 91.4011C45.7971 91.4011 39.9675 89.1774 35.5197 84.7295L23.983 73.1929C15.0877 64.2973 15.0877 49.8749 23.983 40.9793C31.2912 33.6711 42.3296 32.3673 50.9689 37.0669L63.8031 24.2325C72.6989 15.3369 87.1213 15.3372 96.0167 24.2325C104.912 33.1281 104.912 47.5505 96.0167 56.4461L67.7332 84.7295C63.2855 89.1773 57.4558 91.4011 51.6265 91.4011Z" fill="#00F813"/>
</g>
<g opacity="0.0202">
<path d="M51.6265 90.49C46.0302 90.49 40.434 88.355 36.1642 84.0852L24.6275 72.5485C16.0877 64.0088 16.0877 50.1635 24.6275 41.6238C31.8105 34.4408 42.7477 33.3006 51.1239 38.2006L64.4476 24.877C72.9873 16.3374 86.8325 16.3374 95.3726 24.877C103.912 33.4167 103.912 47.2621 95.3726 55.8017L67.0892 84.0851C62.819 88.355 57.2228 90.49 51.6265 90.49Z" fill="#00F813"/>
</g>
<g opacity="0.0208">
<path d="M51.6266 89.5788C46.2634 89.5788 40.9003 87.5328 36.8084 83.4409L25.2718 71.9043C17.0878 63.7204 17.0878 50.4517 25.2718 42.268C32.3275 35.2123 43.1643 34.24 51.262 39.3511L65.0918 25.5213C73.2756 17.3375 86.5443 17.3375 94.7281 25.5213C102.912 33.705 102.912 46.9735 94.7281 55.1576L66.4447 83.441C62.3528 87.5328 56.9897 89.5788 51.6266 89.5788Z" fill="#00F813"/>
</g>
<g opacity="0.0228">
<path d="M51.6266 88.6677C46.4966 88.6677 41.3668 86.7106 37.4527 82.7967L25.916 71.2601C18.0879 63.432 18.0879 50.7403 25.916 42.9122C32.8429 35.9855 43.5777 35.1876 51.3817 40.5198L65.7361 26.1654C73.5643 18.3376 86.2557 18.3376 94.0839 26.1654C101.912 33.9935 101.912 46.6853 94.0839 54.5134L65.8006 82.7968C61.8865 86.7106 56.7566 88.6677 51.6266 88.6677Z" fill="#00F813"/>
</g>
<g opacity="0.0235">
<path d="M51.6266 87.7565C46.7299 87.7565 41.833 85.8884 38.097 82.1523L26.5602 70.6156C19.088 63.1435 19.088 51.0287 26.5602 43.5564C33.3554 36.7618 43.99 36.1465 51.4809 41.7092L66.3804 26.8098C73.8524 19.3375 85.9673 19.3375 93.4397 26.8098C100.912 34.2819 100.912 46.3967 93.4397 53.8689L65.1563 82.1523C61.4201 85.8884 56.5232 87.7565 51.6266 87.7565Z" fill="#00F813"/>
</g>
<g opacity="0.0255">
<path d="M51.6265 86.8455C46.963 86.8455 42.2994 85.0664 38.7412 81.5082L27.2045 69.9716C20.0881 62.8551 20.0881 51.3173 27.2045 44.2008C33.8656 37.5402 44.4004 37.1144 51.5566 42.9218L67.0246 27.4541C74.141 20.3377 85.6787 20.3377 92.7952 27.4541C99.9117 34.5704 99.9117 46.1084 92.7952 53.2248L64.5118 81.5082C60.9536 85.0664 56.2901 86.8455 51.6265 86.8455Z" fill="#00F813"/>
</g>
<g opacity="0.0263">
<path d="M51.6265 85.9343C47.196 85.9343 42.7656 84.2442 39.3853 80.8639L27.8487 69.3273C21.0882 62.5668 21.0882 51.6056 27.8487 44.845C34.3728 38.3209 44.8085 38.0924 51.6064 44.1605L67.6687 28.0982C74.4293 21.3377 85.3904 21.3377 92.151 28.0982C98.9114 34.8588 98.9114 45.82 92.151 52.5806L63.8675 80.8639C60.4873 84.2442 56.0569 85.9343 51.6265 85.9343Z" fill="#00F813"/>
</g>
<g opacity="0.0285">
<path d="M51.6265 85.0232C47.4292 85.0232 43.2321 83.4221 40.0295 80.2195L28.4931 68.683C22.0882 62.2783 22.0882 51.894 28.4931 45.4892C34.8777 39.1046 45.2172 39.0839 51.6262 45.4294L68.3129 28.7427C74.718 22.3376 85.1017 22.3376 91.5068 28.7427C97.9114 35.1473 97.9114 45.5314 91.5068 51.9363L63.2234 80.2195C60.0208 83.422 55.8237 85.0232 51.6265 85.0232Z" fill="#00F813"/>
</g>
<g opacity="0.0294">
<path d="M51.6264 84.112C47.6625 84.112 43.6982 82.5999 40.6739 79.5753L29.1373 68.0386C23.0884 61.9897 23.0884 52.1826 29.1373 46.1336C35.186 40.0844 44.9936 40.0844 51.0423 46.1336L51.6265 46.7177L68.9573 29.3868C75.0061 23.3377 84.8136 23.3377 90.8624 29.3868C96.9113 35.4358 96.9113 45.243 90.8624 51.2919L62.579 79.5753C59.5546 82.5999 55.5903 84.112 51.6264 84.112Z" fill="#00F813"/>
</g>
<g opacity="0.0317">
<path d="M51.6264 83.2009C47.8956 83.2009 44.1647 81.7778 41.3181 78.9311L29.7815 67.3945C24.0885 61.7015 24.0885 52.4708 29.7815 46.7779C35.4748 41.0846 44.7049 41.0846 50.3981 46.7779L51.6265 48.0062L69.6016 30.0311C75.2948 24.3378 84.5249 24.3378 90.2182 30.0311C95.9112 35.7241 95.9112 44.9547 90.2182 50.6477L61.9348 78.9311C59.0881 81.7778 55.3572 83.2009 51.6264 83.2009Z" fill="#00F813"/>
</g>
<g opacity="0.0327">
<path d="M51.6265 82.2899C48.1287 82.2899 44.631 80.9556 41.9624 78.287L30.4257 66.7504C25.0886 61.413 25.0886 52.7594 30.4257 47.4221C35.763 42.0848 44.4166 42.0848 49.7539 47.4221L51.6265 49.2949L70.2457 30.6754C75.5831 25.338 84.2366 25.338 89.5739 30.6754C94.9113 36.0127 94.9113 44.6663 89.5739 50.0036L61.2905 78.287C58.6219 80.9556 55.1241 82.2899 51.6265 82.2899Z" fill="#00F813"/>
</g>
<g opacity="0.0352">
<path d="M51.6266 81.3786C48.362 81.3786 45.0976 80.1332 42.6069 77.6425L31.0702 66.1058C26.0886 61.1244 26.0886 53.0478 31.0702 48.0665C36.0517 43.085 44.1282 43.085 49.1096 48.0665L51.6266 50.5832L70.8903 31.3197C75.8717 26.3383 83.9483 26.3383 88.9297 31.3197C93.9111 36.3011 93.9111 44.3777 88.9297 49.3591L60.6463 77.6425C58.1555 80.1332 54.8912 81.3786 51.6266 81.3786Z" fill="#00F813"/>
</g>
<g opacity="0.0364">
<path d="M51.6266 80.4675C48.5953 80.4675 45.5639 79.311 43.2511 76.9983L31.7144 65.4616C27.0887 60.8359 27.0887 53.3363 31.7144 48.7106C36.3399 44.0851 43.8399 44.0851 48.4654 48.7106L51.6266 51.8718L71.5345 31.9639C76.16 27.3384 83.66 27.3384 88.2855 31.9639C92.9112 36.5896 92.9112 44.0891 88.2855 48.7148L60.0021 76.9983C57.6893 79.311 54.6579 80.4675 51.6266 80.4675Z" fill="#00F813"/>
</g>
<g opacity="0.0392">
<path d="M51.6266 79.5564C48.8285 79.5564 46.0303 78.489 43.8953 76.3541L32.3586 64.8174C28.0888 60.5476 28.0888 53.6247 32.3586 49.3549C36.6286 45.0853 43.5511 45.0853 47.8212 49.3549L51.6265 53.1604L72.1786 32.608C76.4487 28.3385 83.3711 28.3385 87.6412 32.608C91.911 36.8779 91.911 43.8008 87.6412 48.0706L59.3579 76.3541C57.2228 78.4889 54.4248 79.5564 51.6266 79.5564Z" fill="#00F813"/>
</g>
<g opacity="0.0407">
<path d="M51.6265 78.6452C49.0615 78.6452 46.4965 77.6667 44.5397 75.7096L33.003 64.173C29.0888 60.259 29.0888 53.9132 33.003 49.9992C36.9167 46.0851 43.263 46.0851 47.1768 49.9992L51.6265 54.4488L72.8231 33.2525C76.7367 29.3384 83.0831 29.3384 86.9968 33.2525C90.911 37.1664 90.911 43.5123 86.9968 47.4263L58.7134 75.7097C56.7565 77.6667 54.1915 78.6452 51.6265 78.6452Z" fill="#00F813"/>
</g>
<g opacity="0.0438">
<path d="M51.6265 77.7342C49.2946 77.7342 46.9629 76.8446 45.1838 75.0655L33.6472 63.5288C30.089 59.9705 30.089 54.2017 33.6472 50.6435C37.2055 47.0852 42.9743 47.0852 46.5325 50.6435L51.6265 55.7374L73.4673 33.8967C77.0255 30.3385 82.7943 30.3385 86.3526 33.8967C89.9108 37.4549 89.9108 43.2238 86.3526 46.782L58.0692 75.0654C56.29 76.8446 53.9583 77.7342 51.6265 77.7342Z" fill="#00F813"/>
</g>
<g opacity="0.0459">
<path d="M51.6265 76.8229C49.528 76.8229 47.4292 76.0223 45.8281 74.4212L34.2914 62.8846C31.0891 59.6821 31.0891 54.4902 34.2914 51.2877C37.4937 48.0853 42.686 48.0853 45.8884 51.2877L51.6265 57.0259L74.1115 34.5409C77.3138 31.3386 82.5061 31.3386 85.7084 34.5409C88.9108 37.7432 88.9108 42.9355 85.7084 46.1379L57.425 74.4213C55.8238 76.0224 53.725 76.8229 51.6265 76.8229Z" fill="#00F813"/>
</g>
<g opacity="0.0498">
<path d="M51.6265 75.9118C49.7611 75.9118 47.8957 75.2002 46.4722 73.7768L34.9358 62.2402C32.0891 59.3938 32.0891 54.7785 34.9358 51.932C37.7822 49.0852 42.3975 49.0852 45.2439 51.932L51.6265 58.3144L74.7559 35.1853C77.6023 32.3384 82.2176 32.3384 85.064 35.1853C87.9106 38.0317 87.9106 42.647 85.064 45.4934L56.7808 73.7768C55.3573 75.2002 53.4919 75.9118 51.6265 75.9118Z" fill="#00F813"/>
</g>
<g opacity="0.0535">
<path d="M51.6265 75.0008C49.9942 75.0008 48.3619 74.3782 47.1166 73.1327L35.58 61.596C33.0892 59.1053 33.0892 55.067 35.58 52.5763C38.0705 50.0854 42.1092 50.0854 44.5997 52.5763L51.6265 59.6032L75.4001 35.8296C77.8906 33.3387 81.9293 33.3387 84.4198 35.8296C86.9105 38.3203 86.9105 42.3586 84.4198 44.8493L56.1364 73.1327C54.891 74.3782 53.2588 75.0008 51.6265 75.0008Z" fill="#00F813"/>
</g>
<g opacity="0.0665">
<path d="M51.6265 74.0896C50.2273 74.0896 48.8283 73.5559 47.7608 72.4884L36.2242 60.9517C34.0893 58.8167 34.0893 55.3555 36.2242 53.2204C38.3591 51.0854 41.8204 51.0854 43.9554 53.2204L51.6265 60.8914L76.0442 36.4737C78.1792 34.3387 81.6405 34.3387 83.7755 36.4737C85.9103 38.6087 85.9103 42.07 83.7755 44.205L55.4921 72.4884C54.4246 73.5559 53.0257 74.0896 51.6265 74.0896Z" fill="#00F813"/>
</g>
<path d="M51.6266 73.1784C50.4607 73.1784 49.2946 72.7338 48.4051 71.8442L36.8685 60.3076C35.0894 58.5284 35.0894 55.6438 36.8685 53.8647C38.6476 52.0856 41.5323 52.0856 43.3114 53.8647L51.6266 62.1801L76.6885 37.1179C78.4677 35.3388 81.3523 35.3388 83.1314 37.1179C84.9103 38.8969 84.9103 41.7817 83.1314 43.5607L54.848 71.8442C53.9584 72.7338 52.7924 73.1784 51.6266 73.1784Z" fill="#00F813"/>
<path d="M51.6268 72.1662C50.7199 72.1662 49.8132 71.8203 49.1214 71.1283L37.5847 59.5916C36.2009 58.208 36.2009 55.9644 37.5847 54.5808C38.9683 53.1968 41.2119 53.1968 42.5955 54.5808L51.6268 63.6118L77.4048 37.8341C78.7884 36.45 81.032 36.45 82.4156 37.8341C83.7994 39.2177 83.7994 41.4613 82.4156 42.8449L54.1322 71.1283C53.4404 71.8203 52.5337 72.1662 51.6268 72.1662Z" fill="#94FC9C"/>
<path d="M51.6263 71.1538C50.9785 71.1538 50.3307 70.9066 49.8367 70.4123L38.3 58.8756C37.3115 57.8873 37.3115 56.2848 38.3 55.2965C39.2881 54.3079 40.891 54.3079 41.8792 55.2965L51.6263 65.0434L78.1201 38.5498C79.1082 37.5612 80.7111 37.5612 81.6993 38.5498C82.6878 39.5381 82.6878 41.1406 81.6993 42.1289L53.4158 70.4123C52.9218 70.9066 52.274 71.1538 51.6263 71.1538Z" fill="#CAFECE"/>
<path d="M51.6265 70.1413C51.2379 70.1413 50.8493 69.993 50.5528 69.6965L39.0161 58.1598C38.423 57.5668 38.423 56.6054 39.0161 56.0124C39.6092 55.4193 40.5705 55.4193 41.1636 56.0124L51.6265 66.4753L78.8362 39.2656C79.4293 38.6725 80.3906 38.6725 80.9837 39.2656C81.5767 39.8587 81.5767 40.82 80.9837 41.4131L52.7002 69.6965C52.4037 69.993 52.0151 70.1413 51.6265 70.1413Z" fill="#ECFEED"/>
<path d="M51.6269 69.1291C51.4975 69.1291 51.3678 69.0795 51.269 68.9807L39.7323 57.444C39.5345 57.2463 39.5345 56.926 39.7323 56.7282C39.9299 56.5307 40.2506 56.5307 40.4482 56.7282L51.6269 67.9069L79.5524 39.9814C79.75 39.7839 80.0707 39.7839 80.2683 39.9814C80.466 40.1791 80.466 40.4995 80.2683 40.6973L51.9848 68.9807C51.886 69.0795 51.7563 69.1291 51.6269 69.1291Z" fill="white"/>
</svg>
